<svg width="70" height="70" viewBox="0 0 512.00003 512.00003" xmlns="http://www.w3.org/2000/svg"><path d="m42.667969 8.535156h221.867187c18.847656 0 34.132813 15.28125 34.132813 34.132813v426.664062c0 18.851563-15.285157 34.132813-34.132813 34.132813h-221.867187c-18.851563 0-34.132813-15.28125-34.132813-34.132813v-426.664062c0-18.851563 15.28125-34.132813 34.132813-34.132813zm0 0" fill="#37474f"/><path d="m42.667969 8.535156h196.265625c18.851562 0 34.132812 15.28125 34.132812 34.132813v426.664062c0 18.851563-15.28125 34.132813-34.132812 34.132813h-196.265625c-18.851563 0-34.132813-15.28125-34.132813-34.132813v-426.664062c0-18.851563 15.28125-34.132813 34.132813-34.132813zm0 0" fill="#f94f15"/><path d="m8.535156 76.800781h290.132813v358.398438h-290.132813zm0 0" fill="#9d9d9d"/><path d="m8.535156 76.800781h264.53125v358.398438h-264.53125zm0 0" fill="#fff"/><path d="m128 51.199219h-8.535156c-4.710938 0-8.53125-3.820313-8.53125-8.53125 0-4.714844 3.820312-8.535157 8.53125-8.535157h8.535156c4.710938 0 8.535156 3.820313 8.535156 8.535157 0 4.710937-3.824218 8.53125-8.535156 8.53125zm0 0" fill="#95a5a5"/><path d="m187.734375 51.199219h-25.601563c-4.710937 0-8.53125-3.820313-8.53125-8.53125 0-4.714844 3.820313-8.535157 8.53125-8.535157h25.601563c4.710937 0 8.53125 3.820313 8.53125 8.535157 0 4.710937-3.820313 8.53125-8.53125 8.53125zm0 0" fill="#95a5a5"/><path d="m187.734375 477.867188h-68.269531c-4.710938 0-8.53125-3.820313-8.53125-8.535157 0-4.710937 3.820312-8.53125 8.53125-8.53125h68.269531c4.710937 0 8.53125 3.820313 8.53125 8.53125 0 4.714844-3.820313 8.535157-8.53125 8.535157zm0 0" fill="#95a5a5"/><path d="m256 128v85.332031c0 4.714844-3.820312 8.535157-8.535156 8.535157h-13.566406v-.683594h-169.128907v.683594h-5.035156c-4.714844 0-8.535156-3.820313-8.535156-8.535157v-85.332031c0-4.710938 3.820312-8.535156 8.535156-8.535156h187.730469c4.714844 0 8.535156 3.824218 8.535156 8.535156zm0 0" fill="#00828e"/><path d="m230.398438 128v85.332031c0 4.714844-3.820313 8.535157-8.53125 8.535157h-13.570313v-.683594h-151.890625c-3.152344-1.335938-5.203125-4.425782-5.207031-7.851563v-85.332031c0-4.710938 3.820312-8.535156 8.535156-8.535156h162.132813c4.710937 0 8.53125 3.824218 8.53125 8.535156zm0 0" fill="#00bbd3"/><path d="m170.667969 273.066406h76.796875c4.714844 0 8.535156 3.820313 8.535156 8.535156v85.332032c0 4.710937-3.820312 8.53125-8.535156 8.53125h-76.796875c-4.714844 0-8.535157-3.820313-8.535157-8.53125v-85.332032c0-4.714843 3.820313-8.535156 8.535157-8.535156zm0 0" fill="#1360ef"/><path d="m183.464844 221.867188h-118.695313v-.683594l44.03125-44.117188 14.933594-14.933594 34.984375 35.074219.855469.765625zm0 0" fill="#558a30"/><path d="m153.601562 221.867188h-88.832031v-.683594l44.03125-44.117188 20.050781 20.140625.855469.765625zm0 0" fill="#8ac24a"/><path d="m233.898438 221.183594v.683594h-50.433594l-23.890625-23.894532-.855469-.765625 24.746094-23.128906zm0 0" fill="#2e7d32"/><path d="m213.332031 145.066406h273.066407c9.425781 0 17.066406 7.640625 17.066406 17.066406v324.265626c0 9.425781-7.640625 17.066406-17.066406 17.066406h-273.066407c-9.425781 0-17.066406-7.640625-17.066406-17.066406v-324.265626c0-9.425781 7.640625-17.066406 17.066406-17.066406zm0 0" fill="#1360ef"/><path d="m213.332031 145.066406h247.46875c9.425781 0 17.066407 7.640625 17.066407 17.066406v324.265626c0 9.425781-7.640626 17.066406-17.066407 17.066406h-247.46875c-9.425781 0-17.066406-7.640625-17.066406-17.066406v-324.265626c0-9.425781 7.640625-17.066406 17.066406-17.066406zm0 0" fill="#1360ef"/><path d="m238.933594 264.535156c4.710937 0 8.53125-3.824218 8.53125-8.535156v-42.667969h42.667968c4.714844 0 8.535157-3.820312 8.535157-8.53125 0-4.714843-3.820313-8.535156-8.535157-8.535156h-42.667968c-9.425782 0-17.066406 7.640625-17.066406 17.066406v42.667969c0 4.710938 3.820312 8.535156 8.535156 8.535156zm0 0" fill="#14a085"/><path d="m279.101562 232.898438c-3.351562-3.230469-8.671874-3.1875-11.964843.105468-3.289063 3.292969-3.335938 8.613282-.101563 11.960938l17.066406 17.066406c1.597657 1.601562 3.769532 2.5 6.03125 2.503906h.855469c2.539063-.253906 4.835938-1.632812 6.253907-3.757812l34.132812-51.199219c1.691406-2.535156 1.902344-5.78125.550781-8.515625-1.351562-2.734375-4.054687-4.539062-7.097656-4.738281-3.042969-.195313-5.960937 1.246093-7.652344 3.78125l-28.355469 42.546875zm0 0" fill="#14a085"/><path d="m238.933594 358.398438c4.710937 0 8.53125-3.820313 8.53125-8.53125v-42.667969h42.667968c4.714844 0 8.535157-3.820313 8.535157-8.53125 0-4.714844-3.820313-8.535157-8.535157-8.535157h-42.667968c-9.425782 0-17.066406 7.640626-17.066406 17.066407v42.667969c0 4.710937 3.820312 8.53125 8.535156 8.53125zm0 0" fill="#14a085"/><path d="m317.167969 293.929688-28.355469 42.546874-9.710938-9.710937c-3.351562-3.234375-8.671874-3.1875-11.964843.105469-3.289063 3.292968-3.335938 8.613281-.101563 11.960937l17.066406 17.066407c1.597657 1.601562 3.769532 2.5 6.03125 2.5.273438 0 .554688 0 .855469-.042969 2.539063-.25 4.835938-1.628907 6.253907-3.753907l34.132812-51.199218c1.691406-2.535156 1.902344-5.78125.550781-8.515625-1.351562-2.734375-4.054687-4.539063-7.097656-4.738281-3.042969-.195313-5.960937 1.246093-7.652344 3.78125zm0 0" fill="#14a085"/><path d="m298.667969 392.535156c0-4.714844-3.820313-8.535156-8.535157-8.535156h-42.667968c-9.425782 0-17.066406 7.640625-17.066406 17.066406v42.667969c0 4.710937 3.820312 8.53125 8.535156 8.53125 4.710937 0 8.53125-3.820313 8.53125-8.53125v-42.667969h42.667968c4.714844 0 8.535157-3.820312 8.535157-8.53125zm0 0" fill="#14a085"/><path d="m317.167969 387.796875-28.355469 42.546875-9.710938-9.710938c-3.351562-3.234374-8.671874-3.1875-11.964843.105469-3.289063 3.289063-3.335938 8.613281-.101563 11.960938l17.066406 17.066406c1.597657 1.601563 3.769532 2.5 6.03125 2.5.273438 0 .554688 0 .855469-.042969 2.539063-.25 4.835938-1.628906 6.253907-3.753906l34.132812-51.199219c1.691406-2.535156 1.902344-5.78125.550781-8.515625-1.351562-2.734375-4.054687-4.539062-7.097656-4.738281-3.042969-.195313-5.960937 1.246094-7.652344 3.78125zm0 0" fill="#14a085"/><g fill="#3f5c6c"><path d="m366.933594 221.867188h59.734375c4.710937 0 8.53125-3.820313 8.53125-8.535157 0-4.710937-3.820313-8.53125-8.53125-8.53125h-59.734375c-4.714844 0-8.535156 3.820313-8.535156 8.53125 0 4.714844 3.820312 8.535157 8.535156 8.535157zm0 0"/><path d="m460.800781 221.867188h8.53125c4.714844 0 8.535157-3.820313 8.535157-8.535157 0-4.710937-3.820313-8.53125-8.535157-8.53125h-8.53125c-4.714843 0-8.535156 3.820313-8.535156 8.53125 0 4.714844 3.820313 8.535157 8.535156 8.535157zm0 0"/><path d="m401.066406 247.464844c0 4.714844 3.820313 8.535156 8.535156 8.535156h34.132813c4.710937 0 8.53125-3.820312 8.53125-8.535156 0-4.710938-3.820313-8.53125-8.53125-8.53125h-34.132813c-4.714843 0-8.535156 3.820312-8.535156 8.53125zm0 0"/><path d="m366.933594 256h8.53125c4.714844 0 8.535156-3.820312 8.535156-8.535156 0-4.710938-3.820312-8.53125-8.535156-8.53125h-8.53125c-4.714844 0-8.535156 3.820312-8.535156 8.53125 0 4.714844 3.820312 8.535156 8.535156 8.535156zm0 0"/><path d="m366.933594 315.734375h59.734375c4.710937 0 8.53125-3.820313 8.53125-8.535156 0-4.710938-3.820313-8.53125-8.53125-8.53125h-59.734375c-4.714844 0-8.535156 3.820312-8.535156 8.53125 0 4.714843 3.820312 8.535156 8.535156 8.535156zm0 0"/><path d="m469.332031 298.667969h-8.53125c-4.714843 0-8.535156 3.820312-8.535156 8.53125 0 4.714843 3.820313 8.535156 8.535156 8.535156h8.53125c4.714844 0 8.535157-3.820313 8.535157-8.535156 0-4.710938-3.820313-8.53125-8.535157-8.53125zm0 0"/><path d="m443.734375 332.800781h-34.132813c-4.714843 0-8.535156 3.820313-8.535156 8.53125 0 4.714844 3.820313 8.535157 8.535156 8.535157h34.132813c4.710937 0 8.53125-3.820313 8.53125-8.535157 0-4.710937-3.820313-8.53125-8.53125-8.53125zm0 0"/><path d="m366.933594 349.867188h8.53125c4.714844 0 8.535156-3.820313 8.535156-8.535157 0-4.710937-3.820312-8.53125-8.535156-8.53125h-8.53125c-4.714844 0-8.535156 3.820313-8.535156 8.53125 0 4.714844 3.820312 8.535157 8.535156 8.535157zm0 0"/><path d="m366.933594 409.601562h59.734375c4.710937 0 8.53125-3.820312 8.53125-8.535156 0-4.710937-3.820313-8.53125-8.53125-8.53125h-59.734375c-4.714844 0-8.535156 3.820313-8.535156 8.53125 0 4.714844 3.820312 8.535156 8.535156 8.535156zm0 0"/><path d="m469.332031 392.535156h-8.53125c-4.714843 0-8.535156 3.820313-8.535156 8.53125 0 4.714844 3.820313 8.535156 8.535156 8.535156h8.53125c4.714844 0 8.535157-3.820312 8.535157-8.535156 0-4.710937-3.820313-8.53125-8.535157-8.53125zm0 0"/><path d="m443.734375 426.667969h-34.132813c-4.714843 0-8.535156 3.820312-8.535156 8.53125 0 4.714843 3.820313 8.535156 8.535156 8.535156h34.132813c4.710937 0 8.53125-3.820313 8.53125-8.535156 0-4.710938-3.820313-8.53125-8.53125-8.53125zm0 0"/><path d="m375.464844 426.667969h-8.53125c-4.714844 0-8.535156 3.820312-8.535156 8.53125 0 4.714843 3.820312 8.535156 8.535156 8.535156h8.53125c4.714844 0 8.535156-3.820313 8.535156-8.535156 0-4.710938-3.820312-8.53125-8.535156-8.53125zm0 0"/></g><path d="m486.398438 136.535156h-179.199219v-93.867187c-.027344-23.554688-19.113281-42.6406252-42.664063-42.667969h-221.867187c-23.554688.0273438-42.6406252 19.113281-42.667969 42.667969v426.664062c.0273438 23.554688 19.113281 42.640625 42.667969 42.667969h443.730469c14.140624 0 25.601562-11.460938 25.601562-25.601562v-324.265626c0-14.136718-11.460938-25.597656-25.601562-25.597656zm-221.863282 0v-8.535156c0-9.425781-7.644531-17.066406-17.070312-17.066406h-187.730469c-9.425781 0-17.066406 7.640625-17.066406 17.066406v85.332031c0 9.425781 7.640625 17.066407 17.066406 17.066407h128v34.136718h-17.066406c-9.425781 0-17.066407 7.640625-17.066407 17.066406v85.332032c0 9.425781 7.640626 17.066406 17.066407 17.066406h17.066406v42.667969h-170.667969v-341.335938h273.066406v51.203125zm-51.203125 0c-12.527343.039063-23.1875 9.140625-25.1875 21.511719l-29.175781 27.253906-29.195312-29.191406c-1.597657-1.605469-3.773438-2.507813-6.039063-2.507813-2.269531 0-4.441406.902344-6.042969 2.507813l-57.179687 57.222656h-.777344v-85.332031h187.730469v8.535156zm-60.976562 66.292969c.058593.058594.066406.144531.125.207031.0625.058594.1875.109375.265625.1875l10.121094 10.109375h-78.226563l39.09375-39.148437zm18.6875-5.453125 16.691406-15.613281v31.570312h-.734375zm16.691406 169.558594h-17.066406v-85.332032h17.066406zm-145.066406-349.867188h221.867187c14.136719 0 25.597656 11.460938 25.597656 25.601563v25.597656h-273.066406v-25.597656c0-14.140625 11.460938-25.601563 25.601563-25.601563zm-25.601563 452.265625v-25.597656h170.667969v17.066406h-76.800781c-4.714844 0-8.535156 3.820313-8.535156 8.53125 0 4.714844 3.820312 8.535157 8.535156 8.535157h76.800781v8.53125c.027344 2.914062.558594 5.800781 1.570313 8.535156h-146.636719c-6.789063 0-13.300781-2.699219-18.101563-7.5-4.800781-4.800782-7.5-11.3125-7.5-18.101563zm477.867188 17.066407c0 4.714843-3.820313 8.535156-8.535156 8.535156h-273.066407c-4.710937 0-8.53125-3.820313-8.53125-8.535156v-324.265626c0-4.710937 3.820313-8.53125 8.53125-8.53125h273.066407c4.714843 0 8.535156 3.820313 8.535156 8.53125zm0 0"/><path d="m238.933594 264.535156c4.710937 0 8.53125-3.824218 8.53125-8.535156v-42.667969h42.667968c4.714844 0 8.535157-3.820312 8.535157-8.53125 0-4.714843-3.820313-8.535156-8.535157-8.535156h-42.667968c-9.425782 0-17.066406 7.640625-17.066406 17.066406v42.667969c0 4.710938 3.820312 8.535156 8.535156 8.535156zm0 0"/><path d="m317.167969 200.039062-28.355469 42.546876-9.710938-9.710938c-3.371093-3.023438-8.515624-2.886719-11.722656.3125-3.207031 3.195312-3.359375 8.339844-.34375 11.71875l17.066406 17.066406c1.589844 1.621094 3.761719 2.542969 6.03125 2.5625h.855469c2.539063-.253906 4.835938-1.632812 6.253907-3.757812l34.132812-51.199219c1.691406-2.535156 1.902344-5.78125.550781-8.515625-1.351562-2.734375-4.054687-4.539062-7.097656-4.738281-3.042969-.195313-5.960937 1.246093-7.652344 3.78125zm0 0"/><path d="m238.933594 358.398438c4.710937 0 8.53125-3.820313 8.53125-8.53125v-42.667969h42.667968c4.714844 0 8.535157-3.820313 8.535157-8.53125 0-4.714844-3.820313-8.535157-8.535157-8.535157h-42.667968c-9.425782 0-17.066406 7.640626-17.066406 17.066407v42.667969c0 4.710937 3.820312 8.53125 8.535156 8.53125zm0 0"/><path d="m317.167969 293.90625-28.355469 42.546875-9.710938-9.710937c-3.371093-3.023438-8.515624-2.886719-11.722656.308593-3.207031 3.199219-3.359375 8.34375-.34375 11.722657l17.066406 17.066406c1.589844 1.621094 3.761719 2.542968 6.03125 2.558594.28125 0 .554688 0 .855469-.042969 2.539063-.25 4.835938-1.628907 6.253907-3.753907l34.132812-51.199218c1.691406-2.535156 1.902344-5.78125.550781-8.515625-1.351562-2.734375-4.054687-4.539063-7.097656-4.738281-3.042969-.195313-5.960937 1.246093-7.652344 3.78125zm0 0"/><path d="m298.667969 392.535156c0-4.714844-3.820313-8.535156-8.535157-8.535156h-42.667968c-9.425782 0-17.066406 7.640625-17.066406 17.066406v42.667969c0 4.710937 3.820312 8.53125 8.535156 8.53125 4.710937 0 8.53125-3.820313 8.53125-8.53125v-42.667969h42.667968c4.714844 0 8.535157-3.820312 8.535157-8.53125zm0 0"/><path d="m317.167969 387.773438-28.355469 42.546874-9.710938-9.710937c-3.371093-3.023437-8.515624-2.886719-11.722656.308594-3.207031 3.199219-3.359375 8.34375-.34375 11.722656l17.066406 17.066406c1.589844 1.621094 3.761719 2.542969 6.03125 2.558594.28125 0 .554688 0 .855469-.042969 2.539063-.25 4.835938-1.628906 6.253907-3.753906l34.132812-51.199219c1.691406-2.535156 1.902344-5.78125.550781-8.515625-1.351562-2.734375-4.054687-4.539062-7.097656-4.738281-3.042969-.195313-5.960937 1.246094-7.652344 3.78125zm0 0"/><path d="m366.933594 221.867188h59.734375c4.710937 0 8.53125-3.820313 8.53125-8.535157 0-4.710937-3.820313-8.53125-8.53125-8.53125h-59.734375c-4.714844 0-8.535156 3.820313-8.535156 8.53125 0 4.714844 3.820312 8.535157 8.535156 8.535157zm0 0"/><path d="m469.332031 204.800781h-8.53125c-4.714843 0-8.535156 3.820313-8.535156 8.53125 0 4.714844 3.820313 8.535157 8.535156 8.535157h8.53125c4.714844 0 8.535157-3.820313 8.535157-8.535157 0-4.710937-3.820313-8.53125-8.535157-8.53125zm0 0"/><path d="m401.066406 247.464844c0 4.714844 3.820313 8.535156 8.535156 8.535156h34.132813c4.710937 0 8.53125-3.820312 8.53125-8.535156 0-4.710938-3.820313-8.53125-8.53125-8.53125h-34.132813c-4.714843 0-8.535156 3.820312-8.535156 8.53125zm0 0"/><path d="m366.933594 256h8.53125c4.714844 0 8.535156-3.820312 8.535156-8.535156 0-4.710938-3.820312-8.53125-8.535156-8.53125h-8.53125c-4.714844 0-8.535156 3.820312-8.535156 8.53125 0 4.714844 3.820312 8.535156 8.535156 8.535156zm0 0"/><path d="m366.933594 315.734375h59.734375c4.710937 0 8.53125-3.820313 8.53125-8.535156 0-4.710938-3.820313-8.53125-8.53125-8.53125h-59.734375c-4.714844 0-8.535156 3.820312-8.535156 8.53125 0 4.714843 3.820312 8.535156 8.535156 8.535156zm0 0"/><path d="m469.332031 298.667969h-8.53125c-4.714843 0-8.535156 3.820312-8.535156 8.53125 0 4.714843 3.820313 8.535156 8.535156 8.535156h8.53125c4.714844 0 8.535157-3.820313 8.535157-8.535156 0-4.710938-3.820313-8.53125-8.535157-8.53125zm0 0"/><path d="m443.734375 332.800781h-34.132813c-4.714843 0-8.535156 3.820313-8.535156 8.53125 0 4.714844 3.820313 8.535157 8.535156 8.535157h34.132813c4.710937 0 8.53125-3.820313 8.53125-8.535157 0-4.710937-3.820313-8.53125-8.53125-8.53125zm0 0"/><path d="m366.933594 349.867188h8.53125c4.714844 0 8.535156-3.820313 8.535156-8.535157 0-4.710937-3.820312-8.53125-8.535156-8.53125h-8.53125c-4.714844 0-8.535156 3.820313-8.535156 8.53125 0 4.714844 3.820312 8.535157 8.535156 8.535157zm0 0"/><path d="m366.933594 409.601562h59.734375c4.710937 0 8.53125-3.820312 8.53125-8.535156 0-4.710937-3.820313-8.53125-8.53125-8.53125h-59.734375c-4.714844 0-8.535156 3.820313-8.535156 8.53125 0 4.714844 3.820312 8.535156 8.535156 8.535156zm0 0"/><path d="m469.332031 392.535156h-8.53125c-4.714843 0-8.535156 3.820313-8.535156 8.53125 0 4.714844 3.820313 8.535156 8.535156 8.535156h8.53125c4.714844 0 8.535157-3.820312 8.535157-8.535156 0-4.710937-3.820313-8.53125-8.535157-8.53125zm0 0"/><path d="m443.734375 426.667969h-34.132813c-4.714843 0-8.535156 3.820312-8.535156 8.53125 0 4.714843 3.820313 8.535156 8.535156 8.535156h34.132813c4.710937 0 8.53125-3.820313 8.53125-8.535156 0-4.710938-3.820313-8.53125-8.53125-8.53125zm0 0"/><path d="m375.464844 426.667969h-8.53125c-4.714844 0-8.535156 3.820312-8.535156 8.53125 0 4.714843 3.820312 8.535156 8.535156 8.535156h8.53125c4.714844 0 8.535156-3.820313 8.535156-8.535156 0-4.710938-3.820312-8.53125-8.535156-8.53125zm0 0"/><path d="m119.464844 51.199219h8.535156c4.710938 0 8.535156-3.820313 8.535156-8.53125 0-4.714844-3.824218-8.535157-8.535156-8.535157h-8.535156c-4.710938 0-8.53125 3.820313-8.53125 8.535157 0 4.710937 3.820312 8.53125 8.53125 8.53125zm0 0"/><path d="m162.132812 51.199219h25.601563c4.710937 0 8.53125-3.820313 8.53125-8.53125 0-4.714844-3.820313-8.535157-8.53125-8.535157h-25.601563c-4.710937 0-8.53125 3.820313-8.53125 8.535157 0 4.710937 3.820313 8.53125 8.53125 8.53125zm0 0"/><path d="m85.332031 315.734375h42.667969c4.710938 0 8.535156-3.820313 8.535156-8.535156 0-4.710938-3.824218-8.53125-8.535156-8.53125h-42.667969c-4.710937 0-8.53125 3.820312-8.53125 8.53125 0 4.714843 3.820313 8.535156 8.53125 8.535156zm0 0"/><path d="m55.894531 300.089844c-.4375-.335938-.929687-.59375-1.453125-.765625-.507812-.261719-1.058594-.429688-1.628906-.503907-1.0625-.265624-2.171875-.265624-3.234375 0-.566406.074219-1.113281.242188-1.621094.503907-.546875.1875-1.066406.445312-1.542969.765625l-1.273437 1.035156c-1.566406 1.636719-2.453125 3.808594-2.472656 6.074219-.03125 1.121093.203125 2.230469.679687 3.242187.433594 1.035156 1.039063 1.988282 1.792969 2.816406l1.273437 1.023438c.476563.324219.996094.582031 1.542969.769531.507813.257813 1.054688.433594 1.621094.511719.535156.097656 1.078125.15625 1.621094.171875.542969-.015625 1.082031-.074219 1.613281-.171875.566406-.078125 1.117188-.253906 1.628906-.511719.523438-.171875 1.015625-.429687 1.453125-.769531.503907-.332031.9375-.679688 1.363281-1.023438.753907-.828124 1.359376-1.78125 1.792969-2.816406.4375-1.023437.667969-2.125.683594-3.242187-.03125-2.257813-.917969-4.417969-2.476563-6.050781-.425781-.375-.859374-.714844-1.363281-1.058594zm0 0"/><path d="m85.332031 281.601562h42.667969c4.710938 0 8.535156-3.820312 8.535156-8.535156 0-4.710937-3.824218-8.53125-8.535156-8.53125h-42.667969c-4.710937 0-8.53125 3.820313-8.53125 8.53125 0 4.714844 3.820313 8.535156 8.53125 8.535156zm0 0"/><path d="m43.347656 276.308594c.433594 1.035156 1.039063 1.988281 1.792969 2.816406l1.273437 1.023438c.476563.324218.996094.582031 1.542969.769531.507813.257812 1.054688.433593 1.621094.511719.535156.097656 1.078125.15625 1.621094.171874.542969-.015624 1.082031-.074218 1.613281-.171874.566406-.078126 1.117188-.253907 1.628906-.511719.523438-.171875 1.015625-.433594 1.453125-.769531.503907-.339844.9375-.683594 1.363281-1.023438.753907-.828125 1.359376-1.78125 1.792969-2.816406.4375-1.023438.667969-2.125.683594-3.242188-.035156-2.257812-.917969-4.421875-2.476563-6.058594-.425781-.339843-.851562-.683593-1.363281-1.023437-.4375-.335937-.929687-.597656-1.453125-.769531-.511718-.257813-1.0625-.429688-1.628906-.511719-1.0625-.253906-2.171875-.253906-3.234375 0-.566406.078125-1.113281.253906-1.621094.511719-.546875.1875-1.066406.449218-1.542969.769531l-1.273437 1.023437c-1.5625 1.632813-2.445313 3.800782-2.472656 6.058594-.03125 1.121094.203125 2.230469.679687 3.242188zm0 0"/><path d="m85.332031 349.867188h42.667969c4.710938 0 8.535156-3.820313 8.535156-8.535157 0-4.710937-3.824218-8.53125-8.535156-8.53125h-42.667969c-4.710937 0-8.53125 3.820313-8.53125 8.53125 0 4.714844 3.820313 8.535157 8.53125 8.535157zm0 0"/><path d="m55.894531 334.25c-.4375-.335938-.929687-.59375-1.453125-.765625-.511718-.261719-1.0625-.433594-1.628906-.515625-1.0625-.253906-2.171875-.253906-3.234375 0-.566406.082031-1.113281.253906-1.621094.515625-.546875.1875-1.066406.445313-1.542969.765625l-1.273437 1.023438c-1.5625 1.636718-2.445313 3.800781-2.472656 6.058593-.03125 1.121094.203125 2.230469.679687 3.242188.433594 1.035156 1.039063 1.988281 1.792969 2.816406l1.273437 1.023437c.476563.324219.996094.582032 1.542969.769532.507813.261718 1.054688.433594 1.621094.511718.535156.101563 1.078125.15625 1.621094.171876.542969-.015626 1.082031-.070313 1.613281-.171876.566406-.078124 1.117188-.25 1.628906-.511718.523438-.171875 1.015625-.429688 1.453125-.769532.503907-.339843.9375-.679687 1.363281-1.023437.753907-.828125 1.359376-1.78125 1.792969-2.816406.4375-1.023438.667969-2.125.683594-3.242188-.035156-2.257812-.917969-4.421875-2.476563-6.058593-.425781-.339844-.859374-.679688-1.363281-1.023438zm0 0"/><path d="m85.332031 384h42.667969c4.710938 0 8.535156-3.820312 8.535156-8.535156 0-4.710938-3.824218-8.53125-8.535156-8.53125h-42.667969c-4.710937 0-8.53125 3.820312-8.53125 8.53125 0 4.714844 3.820313 8.535156 8.53125 8.535156zm0 0"/><path d="m55.894531 368.359375c-.4375-.335937-.929687-.597656-1.453125-.769531-.507812-.261719-1.058594-.429688-1.628906-.503906-1.0625-.261719-2.171875-.261719-3.234375 0-.566406.074218-1.113281.242187-1.621094.503906-.546875.1875-1.066406.445312-1.542969.769531l-1.273437 1.03125c-1.566406 1.636719-2.453125 3.808594-2.472656 6.074219-.03125 1.121094.203125 2.230468.679687 3.246094.433594 1.03125 1.039063 1.984374 1.792969 2.8125l1.273437 1.027343c.476563.320313.996094.578125 1.542969.765625.507813.261719 1.054688.433594 1.621094.511719.535156.101563 1.078125.15625 1.621094.171875.542969-.015625 1.082031-.070312 1.613281-.171875.566406-.078125 1.117188-.25 1.628906-.511719.523438-.171875 1.015625-.429687 1.453125-.765625.503907-.335937.9375-.683593 1.363281-1.027343.753907-.828126 1.359376-1.78125 1.792969-2.8125.4375-1.027344.667969-2.128907.683594-3.246094-.03125-2.253906-.917969-4.417969-2.476563-6.046875-.425781-.375-.859374-.71875-1.363281-1.058594zm0 0"/></svg>