<?xml version="1.0" encoding="iso-8859-1"?>
<!-- Generator: Adobe Illustrator 19.0.0, SVG Export Plug-In . SVG Version: 6.00 Build 0)  -->
<svg width="70" height="70" version="1.1" id="Capa_1" xmlns="http://www.w3.org/2000/svg" xmlns:xlink="http://www.w3.org/1999/xlink" x="0px" y="0px"
	 viewBox="0 0 511.999 511.999" style="enable-background:new 0 0 511.999 511.999;" xml:space="preserve">
<path style="fill:#878791;" d="M229.947,272.01v-0.025c0-8.829,7.157-15.986,15.986-15.986h22.88
	c8.829,0,15.986,7.157,15.986,15.986v0.025c0,8.829-7.157,15.986-15.986,15.986h-22.88
	C237.104,287.997,229.947,280.84,229.947,272.01z"/>
<g>
	<path style="fill:#f94f15;" d="M128.562,227.826h-4c-28.717,0-51.996-23.279-51.996-51.996l0,0
		c0-28.717,23.279-51.996,51.996-51.996h4V227.826z"/>
	<path style="fill:#f94f15;" d="M383.398,227.826h4c28.717,0,51.996-23.279,51.996-51.996l0,0c0-28.717-23.279-51.996-51.996-51.996
		h-4V227.826z"/>
</g>
<path style="fill:#C8F5FF;" d="M343.973,152.286v-31.478h-16.958c0,0-0.004-0.001-0.004-0.003
	c-1.854-8.422-5.165-16.298-9.66-23.345c-0.006-0.009-0.005-0.022,0.003-0.03l11.975-11.975l-22.257-22.257l-11.989,11.989
	c-7.036-4.492-14.899-7.801-23.307-9.659c-0.033-0.007-0.057-0.037-0.057-0.071V48.554h-31.478V65.53
	c0,0.003-0.002,0.006-0.005,0.006c-8.415,1.864-16.284,5.183-23.324,9.685l-12.024-12.024l-22.257,22.257l12.045,12.045
	c-4.481,7.033-7.781,14.889-9.632,23.289c-0.002,0.011-0.012,0.019-0.023,0.019h-17.034v31.478h17.072
	c1.859,8.395,5.167,16.246,9.652,23.273l-12.08,12.08l22.257,22.257l12.08-12.08c7.027,4.486,14.878,7.792,23.273,9.651v17.072
	h31.478v-17.052c8.407-1.851,16.27-5.153,23.308-9.636l12.045,12.045l22.257-22.257l-12.024-12.024
	c4.498-7.032,7.814-14.892,9.679-23.298c0.004-0.018,0.02-0.031,0.039-0.031h16.95V152.286z"/>
<circle style="fill:#FF5A5A;" cx="255.98" cy="136.549" r="27.998"/>
<rect x="9.999" y="323.864" style="fill:#1360ef;" width="93.423" height="178.116"/>
<path style="fill:#ffffff;" d="M234.331,329.262l100.708,25.56c12.566,3.19,20.908,15.092,19.62,27.992l0,0
	c-1.338,13.392-12.606,23.59-26.064,23.59h-70.283l22.686,0.07h49.589c13.956,0,27.393-5.288,37.605-14.799l85.947-80.044
	c10.044-9.354,25.333-10.207,36.356-2.03l0,0c14.289,10.601,15.457,31.567,2.434,43.69L374.533,463.512
	c-9.99,9.299-23.131,14.47-36.78,14.47H103.421V357.992l82.692-27.089C201.704,325.794,218.428,325.225,234.331,329.262z"/>
<path d="M511.939,330.321c-0.638-11.442-6.282-21.921-15.485-28.749c-14.892-11.05-35.555-9.898-49.128,2.742l-82.559,76.887
	c0.503-16.916-10.616-31.846-27.269-36.071L236.67,319.539c-17.681-4.488-36.197-3.883-53.548,1.751l-69.703,22.63v-20.057
	c0-5.522-4.478-9.999-9.999-9.999H9.999c-5.522,0-9.999,4.478-9.999,9.999V501.98c0,5.522,4.478,9.999,9.999,9.999h93.422
	c5.522,0,9.999-4.478,9.999-9.999V364.947l75.878-24.635c13.756-4.467,28.436-4.945,42.453-1.39l100.829,25.591
	c7.831,1.988,12.933,9.266,12.13,17.308c-0.83,8.314-7.758,14.585-16.114,14.585h-80.282c-5.522,0-9.999,4.478-9.999,9.999
	s4.478,9.999,9.999,9.999h31.542c0.376,0.043,0.757,0.07,1.145,0.07h49.589c16.54,0,32.314-6.209,44.421-17.481l85.947-80.044
	c6.515-6.068,16.434-6.619,23.584-1.316c4.418,3.277,7.126,8.307,7.432,13.8c0.307,5.493-1.828,10.792-5.854,14.541L367.72,456.194
	c-8.167,7.602-18.811,11.789-29.968,11.789H182.796c-5.522,0-9.999,4.478-9.999,9.999s4.478,9.999,9.999,9.999h154.958
	c16.23,0,31.712-6.091,43.594-17.15l118.397-110.22C508.132,352.803,512.577,341.763,511.939,330.321z M93.422,491.981H19.998
	V333.863h73.423V491.981z"/>
<path d="M142.439,467.983c-2.631,0-5.21,1.069-7.069,2.93c-1.86,1.861-2.93,4.44-2.93,7.069s1.069,5.21,2.93,7.068
	c1.87,1.86,4.439,2.931,7.069,2.931c2.64,0,5.21-1.07,7.078-2.931c1.86-1.859,2.931-4.439,2.931-7.068s-1.07-5.21-2.931-7.069
	C147.658,469.052,145.079,467.983,142.439,467.983z"/>
<path d="M56.706,477.652c2.63,0,5.21-1.07,7.079-2.93c1.859-1.86,2.92-4.44,2.92-7.069c0-2.64-1.061-5.21-2.92-7.079
	c-1.87-1.86-4.45-2.92-7.079-2.92s-5.21,1.06-7.069,2.92c-1.86,1.87-2.93,4.45-2.93,7.079c0,2.63,1.069,5.2,2.93,7.069
	C51.506,476.582,54.076,477.652,56.706,477.652z"/>
<path d="M124.562,237.825h4c5.522,0,9.999-4.478,9.999-9.999V88.15c0-37.567,30.564-68.132,68.132-68.132h10.862
	c5.522,0,9.999-4.478,9.999-9.999s-4.478-9.999-9.999-9.999h-10.862c-48.595,0-88.13,39.535-88.13,88.13v25.981
	c-31.379,3.028-55.996,29.54-55.996,61.7C62.567,210.014,90.379,237.825,124.562,237.825z M118.563,134.261v66.278v16.86
	c-20.325-2.92-35.997-20.448-35.997-41.569S98.237,137.181,118.563,134.261z"/>
<path d="M255.98,20.018h0.425c5.522,0,9.999-4.478,9.999-9.999s-4.478-9.999-9.999-9.999h-0.425c-5.522,0-9.999,4.478-9.999,9.999
	S250.458,20.018,255.98,20.018z"/>
<path d="M294.06,20.018h11.207c37.567,0,68.132,30.564,68.132,68.132v167.68c0,3.402-2.768,6.17-6.169,6.17H292.8
	C288.878,252.614,279.605,246,268.814,246h-22.881c-14.328,0-25.985,11.657-25.985,25.985v0.025
	c0,14.328,11.657,25.985,25.985,25.985h22.881c10.787,0,20.057-6.609,23.982-15.999h74.433c14.429,0,26.167-11.739,26.167-26.168
	v-18.3c31.379-3.028,55.996-29.54,55.996-61.7s-24.617-58.671-55.996-61.7V88.15c0-48.595-39.535-88.13-88.13-88.13h-11.207
	c-5.522,0-9.999,4.478-9.999,9.999S288.538,20.018,294.06,20.018z M268.814,277.998h-22.881c-3.302,0-5.987-2.686-5.987-5.987
	v-0.025c0-3.302,2.686-5.987,5.987-5.987h22.881c3.302,0,5.987,2.686,5.987,6.013C274.801,275.312,272.116,277.998,268.814,277.998z
	 M429.394,175.83c0,21.12-15.672,38.649-35.997,41.569v-16.86v-66.278C413.723,137.181,429.394,154.71,429.394,175.83z"/>
<path d="M211.959,56.127c-3.905-3.903-10.234-3.904-14.142,0l-22.258,22.257c-1.875,1.875-2.929,4.419-2.929,7.07
	c0,2.652,1.054,5.195,2.929,7.07l6.658,6.658c-1.9,3.75-3.506,7.631-4.808,11.625h-9.423c-5.522,0-9.999,4.478-9.999,9.999v31.477
	c0,5.522,4.478,9.999,9.999,9.999h9.453c1.305,3.984,2.91,7.854,4.809,11.595l-6.688,6.687c-1.875,1.875-2.929,4.419-2.929,7.07
	c0,2.652,1.054,5.195,2.929,7.07l22.258,22.258c3.906,3.904,10.235,3.904,14.142,0l6.687-6.688c3.74,1.899,7.61,3.505,11.595,4.81
	v9.452c0,5.522,4.478,9.999,9.999,9.999h31.478c5.522,0,9.999-4.478,9.999-9.999v-9.423c3.994-1.303,7.875-2.908,11.625-4.809
	l6.657,6.658c3.906,3.904,10.235,3.904,14.142,0l22.258-22.258c1.875-1.876,2.929-4.419,2.929-7.07c0-2.652-1.054-5.196-2.93-7.07
	l-6.627-6.627c1.912-3.758,3.528-7.649,4.839-11.655h9.361c5.522,0,9.999-4.478,9.999-9.999v-31.477
	c0-5.522-4.478-9.999-9.999-9.999h-9.332c-1.311-4.016-2.926-7.918-4.839-11.686l6.598-6.598c1.875-1.876,2.929-4.419,2.929-7.07
	c0-2.652-1.054-5.196-2.929-7.07l-22.258-22.257c-3.905-3.905-10.235-3.904-14.141,0l-6.599,6.597
	c-3.768-1.912-7.67-3.528-11.685-4.838v-9.333c0-5.522-4.478-9.999-9.999-9.999H240.24c-5.522,0-9.999,4.478-9.999,9.999v9.362
	c-4.006,1.312-7.897,2.928-11.655,4.839L211.959,56.127z M242.228,75.337c4.569-0.925,8.012-4.967,8.012-9.807v-6.977h11.479v6.903
	c0,4.641,3.249,8.741,7.766,9.805c0.044,0.011,0.089,0.021,0.133,0.03c7.146,1.578,13.904,4.379,20.084,8.323
	c3.953,2.521,9.132,1.96,12.449-1.358l4.92-4.919l8.116,8.116l-4.905,4.905c-3.337,3.338-3.878,8.565-1.345,12.507
	c3.906,6.13,6.687,12.829,8.269,19.914c0.918,4.577,4.962,8.026,9.808,8.026h6.957v11.478h-6.949c-4.699,0-8.798,3.302-9.805,7.883
	c-1.587,7.142-4.393,13.89-8.337,20.057c-2.53,3.956-1.968,9.139,1.354,12.459l4.953,4.953l-8.116,8.116l-4.975-4.975
	c-3.315-3.315-8.489-3.881-12.443-1.362c-6.182,3.938-12.938,6.731-20.084,8.304c-4.585,1.01-7.85,5.072-7.85,9.766v7.052H250.24
	v-7.071c0-4.689-3.259-8.748-7.837-9.763c-7.137-1.581-13.885-4.38-20.054-8.317c-3.954-2.525-9.133-1.962-12.451,1.357l-5.01,5.01
	l-8.116-8.116l5.009-5.009c3.318-3.317,3.884-8.495,1.358-12.451c-3.938-6.17-6.735-12.917-8.316-20.055
	c-1.015-4.579-5.074-7.837-9.763-7.837h-7.072v-11.478h7.033c4.51,0,8.483-3.037,9.67-7.387c0.044-0.158,0.083-0.318,0.118-0.479
	c1.573-7.138,4.365-13.891,8.301-20.069c2.519-3.954,1.952-9.127-1.363-12.442l-4.975-4.975l8.116-8.116l4.953,4.954
	c3.32,3.32,8.503,3.883,12.458,1.354C228.432,79.723,235.137,76.928,242.228,75.337z"/>
<path d="M255.98,174.544c20.951,0,37.997-17.046,37.997-37.997S276.931,98.55,255.98,98.55s-37.997,17.046-37.997,37.997
	S235.029,174.544,255.98,174.544z M255.98,118.548c9.924,0,17.999,8.074,17.999,17.999c0,9.924-8.074,17.999-17.999,17.999
	c-9.924,0-17.999-8.074-17.999-17.999C237.981,126.623,246.056,118.548,255.98,118.548z"/>
<path d="M56.711,440.985c5.522,0,9.999-4.478,9.999-9.999v-68.995c0-5.522-4.478-9.999-9.999-9.999s-9.999,4.478-9.999,9.999v68.995
	C46.711,436.508,51.188,440.985,56.711,440.985z"/>
<g>
</g>
<g>
</g>
<g>
</g>
<g>
</g>
<g>
</g>
<g>
</g>
<g>
</g>
<g>
</g>
<g>
</g>
<g>
</g>
<g>
</g>
<g>
</g>
<g>
</g>
<g>
</g>
<g>
</g>
</svg>
