<svg data-name="Layer 1" xmlns="http://www.w3.org/2000/svg" viewBox="0 0 792.79 806.55"><defs><clipPath id="a"><rect x="412.89" y="569.5" width="156.08" height="111.36" rx="6" transform="rotate(-15.15 490.994 625.24)" fill="#00c8d7"/></clipPath><clipPath id="b"><path fill="none" d="M2.33-17.45H794v827.06H2.33z"/></clipPath><clipPath id="c"><path d="M434.38 699a7 7 0 0 1-6.76-5.17l-26-95.91a7 7 0 0 1 4.93-8.59l139.07-37.66a7 7 0 0 1 8.59 4.93l26 95.91a7 7 0 0 1-4.93 8.59l-139.07 37.62a6.78 6.78 0 0 1-1.83.28zm113.1-145.6a5.42 5.42 0 0 0-1.31.17L407.1 591.23a5 5 0 0 0-3.51 6.13l26 95.91a5 5 0 0 0 6.13 3.52l139.07-37.65a5 5 0 0 0 3.52-6.14l-26-95.91a5 5 0 0 0-4.83-3.69zM575 660.1z" fill="#4030db" clip-path="url(#a)"/></clipPath></defs><path d="M388.9 220.48H178.14a3.4 3.4 0 1 1 0-6.8h49.64c-1.68-4.47-6.16-18.53-.34-28.88 3.52-6.29 10.15-10.13 19.69-11.42 25.61-3.48 38.55 17.82 42.22 25.2 1.88-5 7.56-15.45 22-12.7 4.66.89 16.77 5.39 29.16 27.83h48.4a3.4 3.4 0 0 1 0 6.8zm-210.76-4.85a1.4 1.4 0 1 0 0 2.8H388.9a1.4 1.4 0 1 0 0-2.8h-49a1 1 0 0 1-.88-.52c-4-7.38-14.81-24.81-28.07-27.34-16.85-3.22-20.31 13-20.45 13.73a1 1 0 0 1-1.91.17c-.12-.31-12.06-30.35-41.2-26.39-8.88 1.21-15 4.71-18.22 10.41-6.37 11.35.69 27.82 1 28.51a1 1 0 0 1-.08.95 1 1 0 0 1-.84.45h-51.11z" fill="#4030db"/><path d="M341.36 258.33A23.66 23.66 0 1 0 365 282a23.68 23.68 0 0 0-23.64-23.67zm0 41.14A17.49 17.49 0 1 1 358.84 282a17.51 17.51 0 0 1-17.48 17.47zm0-29.83a3.09 3.09 0 1 0 3.08 3.09 3.09 3.09 0 0 0-3.08-3.09zm0 9.26a3.08 3.08 0 0 0-3.09 3.08v10.29a3.09 3.09 0 0 0 6.17 0V282a3.08 3.08 0 0 0-3.08-3.1z" fill="#00c8d7"/><path d="M646.52 218.12a4.88 4.88 0 0 1-4.88-4.87v-13.49a4.88 4.88 0 1 1 9.75 0v13.49a4.88 4.88 0 0 1-4.87 4.87zm0-21.24a2.88 2.88 0 0 0-2.88 2.88v13.49a2.88 2.88 0 0 0 5.75 0v-13.49a2.88 2.88 0 0 0-2.87-2.88z" fill="#003eaa"/><g clip-path="url(#b)"><path d="M198.25 818.82c-12.05-14.47-54-111-61.46-218.13-9.64-138.59 137.81-338.78 360.33-202.46C630.88 480.18 641.28 695.45 765.86 820c1.2 1.21-567.61 3.62-567.61 3.62" fill="#ccf4ff"/><path d="M677.85 483.61l5.67-5.67v18.76a2.48 2.48 0 1 0 5 0v-18.76l5.67 5.67a2.47 2.47 0 0 0 3.5-3.49l-9.88-9.88a2.48 2.48 0 0 0-.83-.56 2.51 2.51 0 0 0-.92-.18 2.61 2.61 0 0 0-.93.18 2.53 2.53 0 0 0-.84.56l-9.87 9.88a2.47 2.47 0 0 0 3.49 3.49zm23 8.15a2.47 2.47 0 0 0-2.48 2.47v8.66a1.23 1.23 0 0 1-1.23 1.23h-22.28a1.23 1.23 0 0 1-1.23-1.23v-8.66a2.47 2.47 0 1 0-4.94 0v8.66a6.18 6.18 0 0 0 6.17 6.18h22.27a6.18 6.18 0 0 0 6.18-6.18v-8.66a2.47 2.47 0 0 0-2.47-2.47zM628.79 251.79l-1.55 3.11-3.47.61 2.46 2.65-.5 3.55 3.05-1.58 3.04 1.6-.49-3.56 2.47-2.64-3.46-.62-1.55-3.12z" fill="#00c8d7"/><path d="M601.16 299.39l56.27.12a2.73 2.73 0 0 0 2.74-2.73l.19-81.36a2.75 2.75 0 0 0-2.74-2.75l-56.26-.12a2.74 2.74 0 0 0-2.75 2.73l-.18 81.36a2.75 2.75 0 0 0 2.73 2.75z" fill="#fff"/><path d="M598.61 312.13l61.32.14a5.48 5.48 0 0 0 5.49-5.47l.21-94.71a5.48 5.48 0 0 0-5.46-5.49l-61.33-.13a5.48 5.48 0 0 0-5.49 5.46l-.21 94.71a5.48 5.48 0 0 0 5.47 5.49zm21.56-5.88v-1.91a2 2 0 0 1 2-2h14.22a2 2 0 0 1 2 2v1.91a2 2 0 0 1-2 2h-14.22a2 2 0 0 1-2-2zm-21.56-91a2.74 2.74 0 0 1 2.75-2.73l56.26.12a2.75 2.75 0 0 1 2.74 2.75l-.19 81.36a2.73 2.73 0 0 1-2.74 2.73l-56.27-.12a2.75 2.75 0 0 1-2.73-2.75z" fill="#00c8d7"/><path d="M637.7 253.2l-5.35-1-2.11-4.2a1.61 1.61 0 0 0-1.43-.9l-1 .07-2.54 5.06-4.48.79a1.64 1.64 0 0 0-1.25 1.08l-.26.95 3.82 4.12-.68 4.79a1.59 1.59 0 0 0 .65 1.54l.87.55 4.86-2.52 4 2.11a1.6 1.6 0 0 0 1.67-.11l.79-.63-.78-5.7 3.22-3.45a1.63 1.63 0 0 0 .36-1.61zm-6.37 5l.49 3.56-3-1.6-3 1.58.5-3.55-2.46-2.65 3.47-.61 1.55-3.11 1.55 3.12 3.46.62zM628.82 241a9.47 9.47 0 1 0-9.45-9.49 9.48 9.48 0 0 0 9.45 9.49zm0-15.95a6.48 6.48 0 1 1-6.49 6.46 6.48 6.48 0 0 1 6.52-6.42z" fill="#00c8d7"/><path d="M628.27 232.89h4.56a.75.75 0 0 0 0-1.5H629v-3.81a.75.75 0 0 0-1.5 0v4.56a.76.76 0 0 0 .77.75zM637.08 274.49v4.56a1.5 1.5 0 0 1-1.5 1.49H631a1.5 1.5 0 0 1 0-3h1.48a5.24 5.24 0 0 0-3.75-1.58 5.31 5.31 0 0 0-5.17 4 1.49 1.49 0 0 1-1.45 1.13 1.64 1.64 0 0 1-.37-.05 1.49 1.49 0 0 1-1.08-1.81 8.26 8.26 0 0 1 13.41-4.3v-.49a1.5 1.5 0 0 1 3 0zM636.79 283.34a8.27 8.27 0 0 1-13.42 4.3v.5a1.5 1.5 0 0 1-3 0v-4.56a1.49 1.49 0 0 1 1.5-1.49h4.56a1.5 1.5 0 1 1 0 3H625a5.21 5.21 0 0 0 3.75 1.57 5.31 5.31 0 0 0 5.17-4 1.5 1.5 0 0 1 2.9.73z" fill="#00c8d7"/><circle cx="283.55" cy="546.51" r="4.69" fill="#00c8d7"/><circle cx="298.67" cy="546.51" r="4.69" fill="#00c8d7"/><rect x="319.01" y="541.21" width="114.72" height="10.6" rx="5.08" fill="#00c8d7"/><circle cx="454.04" cy="546.51" r="4.69" fill="#00c8d7"/><circle cx="469.17" cy="546.51" r="4.69" fill="#00c8d7"/><circle cx="310.38" cy="370.42" r="36.26" fill="#4f42ff"/><path d="M310.38 407.68a37.26 37.26 0 1 1 37.26-37.26 37.3 37.3 0 0 1-37.26 37.26zm0-72.52a35.26 35.26 0 1 0 35.26 35.26 35.3 35.3 0 0 0-35.26-35.26z" fill="#4030db"/><path d="M327.09 359.78a4.4 4.4 0 0 0-3.78-4.3l-12.93-2-12.93 2a4.38 4.38 0 0 0-3.78 4.29c0 3.38 0 7.84.23 10 .64 6.44 1.94 10 5.15 14a17.74 17.74 0 0 0 11.12 6.23h.42a17.74 17.74 0 0 0 11.12-6.23c3.21-4 4.51-7.55 5.15-14 .21-2.16.24-6.62.23-9.99zm-4.33 9.55c-.56 5.68-1.56 8.44-4.26 11.83a13.73 13.73 0 0 1-8.13 4.68 13.56 13.56 0 0 1-8.11-4.68c-2.7-3.39-3.7-6.15-4.27-11.83-.14-1.5-.22-5-.21-9.54 0-.1.12-.21.31-.24l12.29-1.95 12.29 1.95c.19 0 .31.14.31.24.02 4.56-.07 8.04-.22 9.54zm-21.44-.33c.5 5.05 1.26 7.21 3.55 10.08a10.34 10.34 0 0 0 5.51 3.35V361l-9.21 1.45c-.02 3.19.05 5.55.15 6.55z" fill="#fff"/><path d="M500.71 312.85A62.85 62.85 0 1 1 563.55 250a62.92 62.92 0 0 1-62.84 62.85zm0-123.7A60.85 60.85 0 1 0 561.55 250a60.92 60.92 0 0 0-60.84-60.85z" fill="#4030db"/><path d="M197.88 497.23l52.51-51a8.72 8.72 0 0 1 12.32 0l52.52 51a8.71 8.71 0 0 1-6.16 14.87H204a8.71 8.71 0 0 1-6.12-14.87z" fill="#00c8d7"/><path d="M523.47 568.87a9.37 9.37 0 0 1-7.37-3.56c-1.41-1.79-3-3.71-4.65-5.74-10.88-13.22-25.76-31.33-25.76-49.9a37.79 37.79 0 0 1 75.57 0c0 18.57-14.89 36.68-25.76 49.9-1.67 2-3.25 3.95-4.66 5.74a9.36 9.36 0 0 1-7.37 3.56zm0-95a35.82 35.82 0 0 0-35.78 35.78c0 17.85 14.62 35.64 25.3 48.63 1.68 2 3.26 4 4.68 5.76a7.39 7.39 0 0 0 11.6 0c1.42-1.79 3-3.72 4.68-5.76 10.68-13 25.31-30.78 25.31-48.63a35.83 35.83 0 0 0-35.79-35.76z" fill="#4030db"/><path d="M523.47 558a7.33 7.33 0 0 1-5.77-2.79l-.84-1.06c-8.33-10.51-22.27-28.09-22.27-43.82a28.88 28.88 0 1 1 57.76 0c0 15.73-13.94 33.31-22.27 43.82l-.84 1.06a7.31 7.31 0 0 1-5.77 2.79zm0-74.55a26.91 26.91 0 0 0-26.88 26.88c0 15 13.67 32.27 21.83 42.57l.85 1.07a5.37 5.37 0 0 0 8.41 0l.84-1.06c8.16-10.3 21.83-27.54 21.83-42.58a26.91 26.91 0 0 0-26.88-26.87z" fill="#4030db"/><circle cx="523.47" cy="514.8" r="8.07" fill="#00c8d7"/><path d="M594.54 553.18a9.07 9.07 0 1 1 9.08-9.07 9.08 9.08 0 0 1-9.08 9.07zm0-16.14a7.07 7.07 0 1 0 7.08 7.07 7.08 7.08 0 0 0-7.08-7.11z" fill="#4030db"/><circle cx="594.54" cy="514.8" r="8.07" fill="#00c8d7"/><circle cx="374.14" cy="487.17" r="16.73" fill="#4f42ff"/><circle cx="594.54" cy="428.2" r="8.07" fill="#4f42ff"/><path d="M448.71 521.85a1 1 0 0 1-1-1v-46.18a1 1 0 0 1 2 0v46.18a1 1 0 0 1-1 1zM374.1 505.64a18.18 18.18 0 1 1 18.19-18.18 18.2 18.2 0 0 1-18.19 18.18zm0-34.36a16.18 16.18 0 1 0 16.19 16.18 16.2 16.2 0 0 0-16.19-16.18z" fill="#4030db"/><path d="M374.17 522.13a1 1 0 0 1-1-1v-30.79a1 1 0 0 1 2 0v30.79a1 1 0 0 1-1 1zM474.83 451.13H398a1 1 0 0 1-.79-.38 1 1 0 0 1-.18-.86 40.63 40.63 0 0 1 78.82 0 1 1 0 0 1-.18.86 1 1 0 0 1-.84.38zm-75.58-2h74.28a38.63 38.63 0 0 0-74.28 0zM500.71 312.85a63.15 63.15 0 0 1-61.42-49.51 1 1 0 0 1 .2-.84 1 1 0 0 1 .78-.37h50.78a12.72 12.72 0 0 1 12.71 12.71v37a1 1 0 0 1-1 1h-.41c-.52-.01-1.08.01-1.64.01zm2.05-1.05zm-61.24-47.67a61.17 61.17 0 0 0 59.19 46.72h1.05v-36a10.72 10.72 0 0 0-10.71-10.71z" fill="#4030db"/><path d="M502.76 312.8a1 1 0 0 1-.69-.29 1 1 0 0 1-.31-.71v-37a10.72 10.72 0 0 0-10.71-10.71h-49.64a.86.86 0 0 1-.37.58 1 1 0 0 1-1.05.11c-.47-.23-.63-.3-1.33-5a68.45 68.45 0 0 1-.79-9.41 1 1 0 0 1 1-1h55.21a22.45 22.45 0 0 1 22.43 22.43v38.24a1 1 0 0 1-.76 1 62.92 62.92 0 0 1-12.95 1.77zm-61.69-50.67h50a12.72 12.72 0 0 1 12.71 12.71v35.91a61.15 61.15 0 0 0 10.75-1.49v-37.45a20.46 20.46 0 0 0-20.43-20.43h-54.21a72.69 72.69 0 0 0 1.18 10.75zm74.44 47.92zM299.38 499.48a13.81 13.81 0 0 1-9.58-23.76l2-1.94a1 1 0 0 1 1.4 0l17.8 17.84a1 1 0 0 1 .15 1.22 13.46 13.46 0 0 1-11.77 6.64zm-6.89-23.58l-1.3 1.26a11.81 11.81 0 1 0 17.86 15.3zm-2 .54zM583.42 307a4.88 4.88 0 0 1-4.88-4.87v-13.46a4.88 4.88 0 0 1 9.75 0v13.49a4.88 4.88 0 0 1-4.87 4.84zm0-21.23a2.88 2.88 0 0 0-2.88 2.87v13.49a2.88 2.88 0 0 0 5.75 0v-13.46a2.88 2.88 0 0 0-2.87-2.87zM671.55 429.36a4.84 4.84 0 0 1-3.45-1.43L652.17 412l-15.93 15.93a4.88 4.88 0 1 1-6.9-6.89l15.93-15.93-15.93-15.94a4.88 4.88 0 1 1 6.9-6.89l15.93 15.93 15.93-15.93a4.87 4.87 0 1 1 6.89 6.89l-15.93 15.94L675 421a4.88 4.88 0 0 1-3.44 8.32zm-19.38-19.77a1 1 0 0 1 .7.29l16.64 16.64a3 3 0 0 0 4.07 0 2.89 2.89 0 0 0 0-4.07l-16.64-16.64a1 1 0 0 1-.29-.7 1 1 0 0 1 .29-.71l16.64-16.64a2.88 2.88 0 1 0-4.07-4.07l-16.64 16.64a1 1 0 0 1-1.41 0l-16.64-16.64a2.88 2.88 0 0 0-4.07 4.07l16.64 16.64a1 1 0 0 1 0 1.41l-16.64 16.64a2.89 2.89 0 0 0 0 4.07 3 3 0 0 0 4.07 0l16.64-16.64a1 1 0 0 1 .71-.29z" fill="#4030db"/><rect x="390.95" y="261.86" width="114.16" height="201.16" rx="12.13" fill="#4f42ff"/><g data-name="Layer 6"><rect x="432.85" y="441.15" width="30.36" height="13.11" rx="6.46" fill="#4f42ff"/><path d="M456.76 442.15a5.46 5.46 0 0 1 5.46 5.46v.2a5.46 5.46 0 0 1-5.46 5.45h-17.45a5.46 5.46 0 0 1-5.46-5.45v-.2a5.46 5.46 0 0 1 5.46-5.46h17.45m0-2h-17.45a7.47 7.47 0 0 0-7.46 7.46v.2a7.46 7.46 0 0 0 7.46 7.45h17.45a7.46 7.46 0 0 0 7.46-7.45v-.2a7.47 7.47 0 0 0-7.46-7.46z" fill="#fff"/></g><rect x="397.97" y="268.91" width="100.41" height="160.66" rx="4" fill="#fff"/><path d="M486.09 353.74a23.27 23.27 0 0 1-6.51 6.5l-29.43 24a2.89 2.89 0 0 1-3.64 0l-29.64-24a22.37 22.37 0 0 1-6.73-6.7 23.31 23.31 0 0 1 3-29 23.06 23.06 0 0 1 32.61.07 3.25 3.25 0 0 0 4.67 0 23.1 23.1 0 0 1 35.57 29.11zM476.85 287.08a8.48 8.48 0 0 0-12.49-.55 1.19 1.19 0 0 1-1.72 0 8.49 8.49 0 0 0-12 0 8.59 8.59 0 0 0-1.11 10.68 8.15 8.15 0 0 0 2.47 2.46l10.91 8.83a1.08 1.08 0 0 0 1.34 0l10.83-8.84a8.37 8.37 0 0 0 2.39-2.39 8.53 8.53 0 0 0-.62-10.19zM440.89 265.07a4.79 4.79 0 0 0-7.06-.31.67.67 0 0 1-1 0 4.79 4.79 0 0 0-6.78 0 4.85 4.85 0 0 0-.63 6 4.75 4.75 0 0 0 1.4 1.39l6.16 5a.6.6 0 0 0 .76 0l6.12-5a5 5 0 0 0 1.35-1.35 4.84 4.84 0 0 0-.32-5.73zM470 244.29a7.89 7.89 0 0 0-11.59-.51 1.12 1.12 0 0 1-1.6 0 7.87 7.87 0 0 0-11.13 0 8 8 0 0 0-1 9.9 7.83 7.83 0 0 0 2.3 2.29l10.02 8.17a1 1 0 0 0 1.24 0l10.05-8.2a7.9 7.9 0 0 0 1.71-11.65z" fill="#00c8d7"/><path d="M415.69 344.17a1.72 1.72 0 0 1-.32 0 3.88 3.88 0 0 1-3.54-4.16 17.15 17.15 0 0 1 13.42-15.4 3.87 3.87 0 0 1 1.68 7.55 9.47 9.47 0 0 0-7.41 8.49 3.85 3.85 0 0 1-3.83 3.52zM451.54 293.72h-.12a1.42 1.42 0 0 1-1.3-1.53 6.29 6.29 0 0 1 4.94-5.66 1.42 1.42 0 0 1 .62 2.77 3.48 3.48 0 0 0-2.73 3.13 1.42 1.42 0 0 1-1.41 1.29zM426.59 268.82h-.07a.8.8 0 0 1-.74-.86 3.56 3.56 0 0 1 2.79-3.2.8.8 0 1 1 .35 1.57 2 2 0 0 0-1.54 1.76.8.8 0 0 1-.79.73zM446.52 250.45h-.11a1.33 1.33 0 0 1-1.21-1.45 5.86 5.86 0 0 1 4.58-5.26 1.32 1.32 0 0 1 .58 2.58 3.2 3.2 0 0 0-2.53 2.89 1.32 1.32 0 0 1-1.31 1.24z" fill="#f9f9fa"/><path d="M488 522H203.53a18.9 18.9 0 0 1-13.14-32.49l58.73-56.78a11 11 0 0 1 15.47 0l34.82 33.77 128-123.32a21 21 0 0 1 29.67 0l50.36 49.69a47 47 0 0 0 80-33.27 47.3 47.3 0 0 0-13.77-33.42l-29.94-29.98a1 1 0 0 1 0-1.42 1 1 0 0 1 1.41 0l29.93 29.93a49.33 49.33 0 0 1 14.35 34.84A49 49 0 0 1 506 394.23l-50.36-49.69a19 19 0 0 0-26.86 0l-127.93 123.3 8.15 7.91a13.81 13.81 0 1 1-19.2 0l8.17-7.88-34.78-33.73a9 9 0 0 0-12.67 0l-58.74 56.79A16.91 16.91 0 0 0 203.53 520H488a1 1 0 1 1 0 2zm-188.59-52.77l-8.22 7.93a11.81 11.81 0 1 0 16.42 0z" fill="#4030db"/><path d="M448 490.05a40.63 40.63 0 1 1 40.62-40.62A40.67 40.67 0 0 1 448 490.05zm0-79.25a38.63 38.63 0 1 0 38.62 38.63A38.67 38.67 0 0 0 448 410.8zM717.65 383.56a1 1 0 0 1-.94-.66c-.16-.44-15.84-44.86-2.44-101.79 2.9-12.34 1.66-21.63-3.69-27.61-8.28-9.27-23.87-7.53-24-7.52H562.39a1 1 0 0 1 0-2h124c1.28-.14 16.88-1.67 25.68 8.17 5.82 6.5 7.22 16.39 4.16 29.4-13.26 56.33 2.22 100.23 2.37 100.66a1 1 0 0 1-.6 1.28.79.79 0 0 1-.35.07z" fill="#4030db"/><path d="M564.69 420.35s-134.9 110.48-142 132.16c-10.61 32.59 92.34 78.34 92.34 78.34" fill="#4f42ff"/><path d="M515.07 631.85a1 1 0 0 1-.41-.09c-4.23-1.88-103.65-46.49-92.88-79.56 7.06-21.7 136.76-128.1 142.28-132.62a1 1 0 1 1 1.27 1.55c-1.35 1.1-134.76 110.54-141.65 131.69-10.21 31.37 90.77 76.66 91.79 77.11a1 1 0 0 1-.4 1.92zM596.41 556.75s10.55 35.42 25.84 63.11c19.63 35.57 36.17 56.23 36.17 56.23l-15.48-69.37s-12.06-13.26-46.53-49.97z" fill="#4030db"/><path d="M735.61 474.58s-3.37-16.87-14.34-42.18c-4.71-10.87 6.75-10.13 6.75-10.13l-2.53-16.87s13.93 3 14.34 20.25c.85 35.43 5.06 47.24 5.06 47.24z" fill="#fff"/><path d="M734.83 475.74l-.2-1c0-.16-3.48-17.07-14.28-42-1.56-3.6-1.62-6.47-.17-8.52 1.68-2.38 4.91-2.9 6.68-3l-2.57-17.17 1.41.31c.15 0 14.71 3.42 15.13 21.2.83 34.77 5 46.82 5 46.94l.39 1.1zm-7.25-52.48c-1.1 0-4.37.18-5.77 2.17-1 1.44-.88 3.65.38 6.57 9.42 21.74 13.3 37.48 14.2 41.42l7.22-1.31c-1-3.68-4.07-16.78-4.78-46.44-.16-6.83-2.5-12.16-7-15.83a18.54 18.54 0 0 0-5.15-3l2.47 16.51-1.23-.08z" fill="#4030db"/><rect x="412.89" y="569.5" width="156.08" height="111.36" rx="6" transform="rotate(-15.15 490.994 625.24)" fill="#00c8d7"/><path d="M434.38 699a7 7 0 0 1-6.76-5.17l-26-95.91a7 7 0 0 1 4.93-8.59l139.07-37.66a7 7 0 0 1 8.59 4.93l26 95.91a7 7 0 0 1-4.93 8.59l-139.07 37.62a6.78 6.78 0 0 1-1.83.28zm113.1-145.6a5.42 5.42 0 0 0-1.31.17L407.1 591.23a5 5 0 0 0-3.51 6.13l26 95.91a5 5 0 0 0 6.13 3.52l139.07-37.65a5 5 0 0 0 3.52-6.14l-26-95.91a5 5 0 0 0-4.83-3.69zM575 660.1z" fill="#4030db"/><g clip-path="url(#c)"><path fill="none" d="M433.897 697.882l1.05-1.234 1.234 1.05-1.05 1.233z"/><path fill="#00d9eb" d="M435.76 697.39l-1.41-.02-.05.9 1.05.43.41-1.31z"/><path fill="none" d="M437.882 690.1l1.343-1.33 1.33 1.343-1.343 1.33z"/><path fill="#00d9eb" d="M440.1 689.73l-1.63-.16-.15 1.04 1.18.6.6-1.48z"/><path fill="none" d="M433.873 696.22l.789-1.618 1.618.789-.79 1.618z"/><path fill="#00d9eb" d="M434.41 695.19l.37 1.52.98-.19.17-1.25-1.52-.08z"/><path fill="none" d="M432.774 697.028l.986-1.36 1.36.985-.985 1.36z"/><path fill="#00d9eb" d="M433.43 696.06l.1 1.45.94-.01.35-1.13-1.39-.31z"/><path fill="none" d="M435.138 692.675l.777-1.092 1.092.777-.777 1.092z"/><path fill="#00d9eb" d="M436.64 692.05l-1.16.09.02.74.9.28.24-1.11z"/><path fill="none" d="M432.664 696.057l.471-1.049 1.05.471-.472 1.05z"/><path fill="#00d9eb" d="M432.99 695.4l.26.96.63-.14.08-.8-.97-.02z"/><path fill="none" d="M433.127 691.614l1.564-.222.221 1.565-1.564.22z"/><path fill="#00d9eb" d="M436.13 689.96l-.92 1.02.63.62.99-.5-.7-1.14z"/></g><ellipse cx="488.1" cy="624.47" rx="12.46" ry="13.15" fill="#fff"/><path d="M488.1 638.62c-7.43 0-13.47-6.35-13.47-14.15s6-14.15 13.47-14.15 13.46 6.35 13.46 14.15-6.04 14.15-13.46 14.15zm0-26.3c-6.32 0-11.47 5.45-11.47 12.15s5.15 12.15 11.47 12.15 11.46-5.45 11.46-12.15-5.15-12.15-11.46-12.15zM725.49 420.9a2 2 0 0 1-2-1.6l-8.4-41.3a2 2 0 1 1 3.92-.8l8.44 41.34a2 2 0 0 1-1.56 2.36 2.71 2.71 0 0 1-.4 0z" fill="#4030db"/><path d="M671.13 727.72H498.68l-9.52 90.66c26.26-290.44 82.57-422 82.57-422l34.35 2.06s28.32 151.73 88.41 167.46c53.15 13.93 31.4-87.18 31.4-87.18l21-6.89s35 162.41-32.12 168.74c-72.47 6.83-116.67-83.82-116.67-83.82l54 97.32s11.25 66.77 56.51 174.64" fill="#4f42ff"/><path d="M708.6 829.71a1 1 0 0 1-.92-.62c-16.46-39.22-28.44-73.13-37-100.37H499.77c-.46 3.64-.91 7.33-1.35 11l-8.27 78.72a1 1 0 0 1-2-.19q3.76-41.6 8.27-78.75l1.25-11.93a1 1 0 0 1 .29-.6c12.89-103 28.93-179.29 41.35-228.81 17.19-68.5 31.35-101.93 31.49-102.26a1 1 0 0 1 1-.61l34.35 2.06a1 1 0 0 1 .93.82c.28 1.51 28.88 151.33 87.67 166.73 10 2.61 17.88 1.2 23.52-4.19 19.88-19 6.79-81.2 6.65-81.82a1 1 0 0 1 .67-1.16l21-6.89a1 1 0 0 1 .81.08 1 1 0 0 1 .48.66 485.75 485.75 0 0 1 8.3 61.46c3 44.38-2 75.7-14.71 93.1-6.73 9.18-15.67 14.35-26.59 15.38C677 645.14 647 622 628.52 601.9c-4.75-5.15-9-10.36-12.73-15.32l37.18 67a1.21 1.21 0 0 1 .11.32c.11.67 11.75 67.92 56.45 174.42a1 1 0 0 1-.54 1.31 1 1 0 0 1-.39.08zM500 726.72h170c-13.72-43.87-18.48-70-18.89-72.31l-48.57-87.54c-3.49-5.85-5.33-9.59-5.37-9.68a1 1 0 0 1 1.77-.93l5.35 9.65A213.53 213.53 0 0 0 630 600.58c18.18 19.71 47.62 42.48 84.62 39 10.32-1 18.79-5.87 25.17-14.57 28.2-38.49 8.66-140.19 6.29-151.87l-19.05 6.26c1.64 8 12.19 64.05-7.41 82.8-6.17 5.9-14.72 7.48-25.41 4.68-25.25-6.61-47.94-37-67.42-90.28a557.92 557.92 0 0 1-21.56-77.25l-32.87-2c-2 4.95-15.29 38.22-31.14 101.39-12.36 49.38-28.34 125.42-41.22 227.98z" fill="#4030db"/><path d="M499.4 727.47l-10.13 90.27 95.37 4.42c-20.28-34.84-38.25-72.56-48.41-94.87z" fill="#00c8d7"/><path d="M584.65 823.16l-95.38-4.42a1 1 0 0 1-.72-.35 1 1 0 0 1-.23-.76l10.13-90.28a1 1 0 0 1 1-.88l36.83-.18a1 1 0 0 1 .91.58c11.18 24.55 28.65 60.93 48.37 94.78a1 1 0 0 1 0 1 1 1 0 0 1-.91.51zm-94.27-6.37l92.48 4.28c-19.23-33.2-36.24-68.58-47.27-92.78l-35.3.17z" fill="#4030db"/><path d="M670.84 726.62l-134.61.67c10.16 22.31 28.13 60 48.41 94.87l123.13 5.7z" fill="#00c8d7"/><path d="M707.77 828.86l-123.13-5.7a1 1 0 0 1-.82-.5c-19.76-33.93-37.26-70.37-48.46-95a1 1 0 0 1 .9-1.41l134.61-.67a1.09 1.09 0 0 1 .95.66l36.93 101.24a1 1 0 0 1-.13.93 1 1 0 0 1-.85.45zm-122.53-7.68l121.08 5.61-36.18-99.16-132.36.65c11.15 24.4 28.22 59.82 47.46 92.9zM324.79 859.58a1 1 0 0 1-.89-.53c-28-53.41-37.19-100.47-27.93-143.85 7.81-36.58 27.7-64.12 46.12-86.23 32-38.4 31.68-62.78 31.22-96.52-.06-4-.11-8.19-.11-12.5a1 1 0 0 1 2 0c0 4.29.05 8.45.11 12.47.44 32.88.8 58.86-31.68 97.83-18.27 21.92-38 49.21-45.7 85.37-9.16 42.91-.09 89.52 27.74 142.5a1 1 0 0 1-.42 1.35 1 1 0 0 1-.46.11z" fill="#4030db"/><path d="M404.08 684.78c-10.16 0-21.36-2.15-33.27-6.48-80.24-29.18-128.9-70.2-144.62-121.91-9.48-31.18-6.87-65.57 7.74-102.21a254.88 254.88 0 0 1 31.25-55.75l.62-.84c2.18-3 4.22-5.6 6.19-8.1 7.37-9.39 12.24-15.59 12.24-28a27.27 27.27 0 0 0-54.54 0 1 1 0 0 1-2 0 29.27 29.27 0 0 1 58.54 0c0 13.15-5.31 19.91-12.67 29.27-2 2.49-4 5.07-6.15 8l-.62.85c-18.3 25-58.72 90.29-38.69 156.19 15.53 51.08 63.77 91.66 143.39 120.61 27.52 10 51.09 8.15 66.36-5.22 13-11.39 18.49-30.36 14.29-49.51-5-22.58-11.63-31.15-17.51-38.72a1 1 0 0 1 .17-1.4 1 1 0 0 1 1.41.17c7.27 9.35 13.2 18.2 17.88 39.52 4.36 19.86-1.36 39.58-14.92 51.45-9.17 8.03-21.17 12.08-35.09 12.08z" fill="#4030db"/><path d="M101 428.68a5.86 5.86 0 0 1-6-5.65l-1.52-122.66a6.31 6.31 0 0 1 6.23-6.37l131.66-1.54a6.3 6.3 0 0 1 6.37 6.22l1.44 122.66a5.86 5.86 0 0 1-5.91 5.79z" fill="#4f42ff"/><circle cx="106.95" cy="306.11" r="2.97" fill="#fff" data-name="Layer 3"/><circle cx="116.52" cy="306" r="2.97" fill="#fff" data-name="Layer 5"/><path d="M202 305.14v-.29a3.21 3.21 0 0 0-3.24-3.17l-66.17.78a3.21 3.21 0 0 0-3.18 3.25v.29a3.21 3.21 0 0 0 3.25 3.18l66.16-.78a3.22 3.22 0 0 0 3.18-3.26z" fill="#fff" data-name="Layer 6"/><circle cx="214.84" cy="304.85" r="2.97" fill="#fff" data-name="Layer 3"/><circle cx="224.41" cy="304.73" r="2.97" fill="#fff" data-name="Layer 5"/><path d="M164.21 268a2.18 2.18 0 0 1-2.13-1.63 6.48 6.48 0 0 0-4.75-4.64 2.16 2.16 0 0 1 0-4.21 6.48 6.48 0 0 0 4.63-4.76 2.17 2.17 0 0 1 4.21 0 6.51 6.51 0 0 0 4.76 4.64 2.17 2.17 0 0 1 .05 4.21 6.48 6.48 0 0 0-4.65 4.75 2.16 2.16 0 0 1-2.12 1.64zm18.71 15.5a12.91 12.91 0 0 1 9.23-9.46 2.36 2.36 0 0 0 0-4.6 12.93 12.93 0 0 1-9.47-9.26 2.37 2.37 0 0 0-4.6.07 12.88 12.88 0 0 1-9.27 9.46 2.37 2.37 0 0 0 .08 4.6 13 13 0 0 1 9.47 9.26 2.37 2.37 0 0 0 4.6-.07zm-23 22.41a20.25 20.25 0 0 1 14.53-14.85 2.63 2.63 0 0 0 1.95-2.57 2.58 2.58 0 0 0-2-2.48 20.27 20.27 0 0 1-14.85-14.5 2.59 2.59 0 0 0-5 .05A20.27 20.27 0 0 1 140 286.41a2.59 2.59 0 0 0-2 2.53 2.64 2.64 0 0 0 2 2.52A20.25 20.25 0 0 1 154.86 306a2.61 2.61 0 0 0 2.55 2 2.59 2.59 0 0 0 2.5-2.09z" fill="#00c8d7"/><path d="M143.71 355.4l6.36-6.51a14.46 14.46 0 0 1 20.42-.24l-4.58 4.69a7.9 7.9 0 0 0-11.15.13L148.4 360z" fill="#fff" data-name="Layer 2"/><path d="M158.6 356.11a14.43 14.43 0 0 1 24.52-10.5l12.94 12.64a14.44 14.44 0 0 1-20.18 20.67l-12.94-12.64a14.4 14.4 0 0 1-4.34-10.17zm35.25 12.38a7.87 7.87 0 0 0-2.37-5.55l-12.94-12.63a7.89 7.89 0 0 0-11.15.13 7.88 7.88 0 0 0 .13 11.14l12.94 12.64a7.89 7.89 0 0 0 11.15-.13 7.79 7.79 0 0 0 2.24-5.6z" fill="#fff" data-name="Layer 3"/><path d="M133.33 372.09a14.42 14.42 0 0 1 4.1-10.26l9.1-9.31 4.69 4.58-9.1 9.31a7.88 7.88 0 0 0 11.28 11l12.6-12.92 4.69 4.58L158.1 382a14.44 14.44 0 0 1-24.77-9.92z" fill="#fff" data-name="Layer 5"/><path d="M165.91 353.34l4.58-4.69a14.44 14.44 0 0 1 .24 20.42l-4.73-4.58a7.9 7.9 0 0 0-.13-11.15z" fill="#fff" data-name="Layer 6"/></g><path d="M567.9 288.45s-40.07 8.27-22.75 65.65c16.54 54.79 56.86 51.17 66.17 41.35s19.64-38.25 15.51-62-21.72-56.37-58.93-45z" fill="#fff"/><path d="M594.51 404.14a26.65 26.65 0 0 1-8.37-1.42c-15-5-28.54-17.71-37.18-35-8.51-17.05-11.14-36-7.23-52.1 5-20.44 23.17-30.08 39-30.57 15.47-.45 34.6 7.48 41.94 31.21a1 1 0 1 1-1.91.59c-7-22.65-25.24-30.25-40-29.8-15.06.46-32.37 9.62-37.11 29.05-3.8 15.61-1.22 34.1 7.08 50.73 8.41 16.83 21.53 29.23 36 34 7.13 2.35 13.67 1.54 19.42-2.39 12.4-8.48 19-30.22 19.85-46.84.79-15.08-6.64-22.56-12.17-23.06-3.4-.31-5.74 1.94-6.25 6-.94 7.32 3.37 15.74 6.83 22.51 2.92 5.7 5.23 10.21 4.46 13.39a4.93 4.93 0 0 1-2.27 3.26c-2.59 1.5-6.53.36-10-.65a24.16 24.16 0 0 0-4.34-1 1 1 0 0 1-.93-1.07 1 1 0 0 1 1.07-.93 25.71 25.71 0 0 1 4.76 1.09c3.09.9 6.6 1.91 8.45.84a3 3 0 0 0 1.32-2c.6-2.46-1.78-7.1-4.29-12-3.59-7-8-15.73-7-23.68.65-5.1 4-8.13 8.42-7.73 6.32.57 14.85 8.75 14 25.16-.93 17.66-7.69 39.47-20.72 48.38a22.33 22.33 0 0 1-12.83 4.03z" fill="#4030db"/></svg>