<?xml version="1.0" encoding="utf-8"?>
<svg id="master-artboard" viewBox="0 0 1400 1400" version="1.1" xmlns="http://www.w3.org/2000/svg" x="0px" y="0px" width="1400px" height="1400px" enable-background="new 0 0 1400 1400">
<path d="M 0 0 H 1400 V 1400 H 0 V 0 Z" fill="#6474E8" style="fill-opacity: 0;"/>
<g transform="matrix(1.1975400919275088, 0, 0, 1.1975400919275088, -138.27807028620776, -138.2780287211904)">
	<g>
		<g>
			<g enable-background="new    ">
				<g>
					<path d="M 700.7000122070312 734.9000244140625 L 535 830.7999877929688 L 419.29998779296875 764.2999877929688 L 585 668.5 Z" fill="#F4F4F4"/>
				</g>
				<g>
					<path d="M 700.7000122070312 734.9000244140625 L 700.5999755859375 742.5999755859375 L 535 838.4000244140625 L 535 830.7999877929688 Z" fill="#D6D6D6"/>
				</g>
				<g>
					<path d="M 535 830.7999877929688 L 535 838.4000244140625 L 419.29998779296875 772 L 419.29998779296875 764.2999877929688 Z" fill="#D6D6D6"/>
				</g>
			</g>
		</g>
		<g>
			<g enable-background="new    ">
				<g>
					<path d="M 700.7000122070312 723.9000244140625 L 535 819.7000122070312 L 419.29998779296875 753.2999877929688 L 585 657.5 Z" fill="#F4F4F4"/>
				</g>
				<g>
					<path d="M 700.7000122070312 723.9000244140625 L 700.5999755859375 731.5999755859375 L 535 827.4000244140625 L 535 819.7000122070312 Z" fill="#D6D6D6"/>
				</g>
				<g>
					<path d="M 535 819.7000122070312 L 535 827.4000244140625 L 419.29998779296875 761 L 419.29998779296875 753.2999877929688 Z" fill="#D6D6D6"/>
				</g>
			</g>
		</g>
		<g>
			<g enable-background="new    ">
				<g>
					<path d="M 700.7000122070312 712.9000244140625 L 535 808.7000122070312 L 419.29998779296875 742.2000122070312 L 585 646.4000244140625 Z" fill="#F4F4F4"/>
				</g>
				<g>
					<path d="M 700.7000122070312 712.9000244140625 L 700.5999755859375 720.5999755859375 L 535 816.4000244140625 L 535 808.7000122070312 Z" fill="#D6D6D6"/>
				</g>
				<g>
					<path d="M 535 808.7000122070312 L 535 816.4000244140625 L 419.29998779296875 749.9000244140625 L 419.29998779296875 742.2000122070312 Z" fill="#D6D6D6"/>
				</g>
			</g>
		</g>
		<g>
			<g enable-background="new    ">
				<g>
					<path d="M 700.7000122070312 701.7999877929688 L 535 797.5999755859375 L 419.29998779296875 731.2000122070312 L 585 635.4000244140625 Z" fill="#F4F4F4"/>
				</g>
				<g>
					<path d="M 700.7000122070312 701.7999877929688 L 700.5999755859375 709.5 L 535 805.2999877929688 L 535 797.5999755859375 Z" fill="#D6D6D6"/>
				</g>
				<g>
					<path d="M 535 797.5999755859375 L 535 805.2999877929688 L 419.29998779296875 738.9000244140625 L 419.29998779296875 731.2000122070312 Z" fill="#D6D6D6"/>
				</g>
			</g>
		</g>
		<g>
			<g enable-background="new    ">
				<g>
					<path d="M 700.7000122070312 690.7999877929688 L 535 786.5999755859375 L 419.29998779296875 720.2000122070312 L 585 624.4000244140625 Z" fill="#F4F4F4"/>
				</g>
				<g>
					<path d="M 700.7000122070312 690.7999877929688 L 700.5999755859375 698.5 L 535 794.2999877929688 L 535 786.5999755859375 Z" fill="#D6D6D6"/>
				</g>
				<g>
					<path d="M 535 786.5999755859375 L 535 794.2999877929688 L 419.29998779296875 727.9000244140625 L 419.29998779296875 720.2000122070312 Z" fill="#D6D6D6"/>
				</g>
			</g>
		</g>
		<g>
			<g enable-background="new    ">
				<g>
					<path d="M 700.7000122070312 679.7999877929688 L 535 775.5999755859375 L 419.29998779296875 709.0999755859375 L 585 613.2999877929688 Z" fill="#F4F4F4"/>
				</g>
				<g>
					<path d="M 700.7000122070312 679.7999877929688 L 700.5999755859375 687.5 L 535 783.2999877929688 L 535 775.5999755859375 Z" fill="#D6D6D6"/>
				</g>
				<g>
					<path d="M 535 775.5999755859375 L 535 783.2999877929688 L 419.29998779296875 716.7999877929688 L 419.29998779296875 709.0999755859375 Z" fill="#D6D6D6"/>
				</g>
			</g>
		</g>
		<g>
			<g enable-background="new    ">
				<g>
					<path d="M 700.7000122070312 668.7000122070312 L 535 764.5 L 419.29998779296875 698.0999755859375 L 585 602.2999877929688 Z" fill="#F4F4F4"/>
				</g>
				<g>
					<path d="M 700.7000122070312 668.7000122070312 L 700.5999755859375 676.4000244140625 L 535 772.2000122070312 L 535 764.5 Z" fill="#D6D6D6"/>
				</g>
				<g>
					<path d="M 535 764.5 L 535 772.2000122070312 L 419.29998779296875 705.7999877929688 L 419.29998779296875 698.0999755859375 Z" fill="#D6D6D6"/>
				</g>
			</g>
		</g>
		<g>
			<g enable-background="new    ">
				<g>
					<path d="M 700.7000122070312 657.7000122070312 L 535 753.5 L 419.29998779296875 687.0999755859375 L 585 591.2999877929688 Z" fill="#F4F4F4"/>
				</g>
				<g>
					<path d="M 700.7000122070312 657.7000122070312 L 700.5999755859375 665.4000244140625 L 535 761.2000122070312 L 535 753.5 Z" fill="#D6D6D6"/>
				</g>
				<g>
					<path d="M 535 753.5 L 535 761.2000122070312 L 419.29998779296875 694.7999877929688 L 419.29998779296875 687.0999755859375 Z" fill="#D6D6D6"/>
				</g>
			</g>
		</g>
	</g>
	<g>
		<path fill="#C5D2D3" d="M696.2,142.6c7.6-4.4,18.2-3.8,29.9,2.9l233.8,135c23.2,13.4,42,45.9,41.9,72.6l-1.8,640.5&#10;&#9;&#9;&#9;c0,13.3-4.7,22.6-12.3,27l-20.8,12.1c7.5-4.4,12.2-13.7,12.3-27l1.8-640.5c0.1-26.7-18.7-59.2-41.9-72.6l-233.8-135&#10;&#9;&#9;&#9;c-11.7-6.7-22.3-7.4-29.9-2.9L696.2,142.6z"/>
		<g>
			<path fill="#6573EC" d="M705.3,174.8c-15-8.6-27.1-1.7-27.2,15.5l-1.8,640.5c0,17.2,12,38.2,27,46.8l233.8,135&#10;&#9;&#9;&#9;&#9;c15,8.6,27.1,1.7,27.2-15.5l1.8-640.5c0-17.2-12-38.2-27-46.8l-32.2-18.6c-2.3-1.3-4.2-0.3-4.2,2.4c0,11.2-7.9,15.7-17.7,10.1&#10;&#9;&#9;&#9;&#9;L759.2,231c-9.7-5.6-17.6-19.2-17.6-30.4c0-2.7-1.9-5.9-4.2-7.2L705.3,174.8z"/>
		</g>
		<path fill="#47436B" d="M661.3,822.2c-0.1,26.7,18.7,59.2,41.9,72.6l233.8,135c23.2,13.4,42.1,2.6,42.2-24l1.8-640.5&#10;&#9;&#9;&#9;c0.1-26.7-18.7-59.2-41.9-72.6l-233.8-135c-23.2-13.4-42.1-2.6-42.2,24L661.3,822.2z M772.2,220.3c0,2.9-2,4-4.5,2.6&#10;&#9;&#9;&#9;c-2.5-1.4-4.5-4.9-4.5-7.8c0-2.9,2-4,4.5-2.6C770.2,213.9,772.2,217.4,772.2,220.3z M866.1,274.5c0,1.4-1,2-2.2,1.3l-83.4-48.2&#10;&#9;&#9;&#9;c-1.2-0.7-2.2-2.4-2.2-3.8c0-1.4,1-2,2.2-1.3l83.4,48.2C865.1,271.4,866.1,273.1,866.1,274.5z M676.3,830.8l1.8-640.5&#10;&#9;&#9;&#9;c0-17.2,12.2-24.1,27.2-15.5l32.2,18.6c2.3,1.3,4.2,4.6,4.2,7.2c0,11.2,7.8,24.8,17.6,30.4L885,303.6c9.7,5.6,17.6,1.1,17.7-10.1&#10;&#9;&#9;&#9;c0-2.7,1.9-3.7,4.2-2.4l32.2,18.6c15,8.6,27.1,29.6,27,46.8l-1.8,640.5c0,17.2-12.2,24.1-27.2,15.5l-233.8-135&#10;&#9;&#9;&#9;C688.3,869,676.2,848,676.3,830.8z"/>
		<path fill="#FFFFFF" d="M767.7,212.5c-2.5-1.4-4.5-0.3-4.5,2.6c0,2.9,2,6.4,4.5,7.8c2.5,1.4,4.5,0.3,4.5-2.6&#10;&#9;&#9;&#9;C772.2,217.4,770.2,213.9,767.7,212.5z"/>
		<path fill="#FFFFFF" d="M863.9,270.7l-83.4-48.2c-1.2-0.7-2.2-0.1-2.2,1.3c0,1.4,1,3.1,2.2,3.8l83.4,48.2c1.2,0.7,2.2,0.1,2.2-1.3&#10;&#9;&#9;&#9;C866.1,273.1,865.1,271.4,863.9,270.7z"/>
	</g>
	<path d="M 629.5999755859375 498.3999938964844 L 628.7000122070312 787.5999755859375 L 896 941.9000244140625 L 896.7999877929688 652.7000122070312 Z" fill="#A6D2DD"/>
	<path d="M 896.5999755859375 716.4000244140625 L 629.2999877929688 562.0999755859375 L 629.5 487.3999938964844 L 896.7999877929688 641.7000122070312 Z" fill="#47436B"/>
	<g>
		<path d="M 793.7999877929688 688.0999755859375 L 793.5999755859375 755.5999755859375 L 852.2999877929688 789.5 L 852.5 722 Z" fill="#FFFFFF"/>
	</g>
	<g>
		<path d="M 793.7999877929688 779.7999877929688 L 793.5999755859375 847.2000122070312 L 852.2999877929688 881.2000122070312 L 852.5 813.7000122070312 Z" fill="#FED250"/>
	</g>
	<g>
		<path d="M 665.9000244140625 634.4000244140625 L 665.9000244140625 643.0999755859375 L 768.7000122070312 702.5 L 768.7000122070312 693.7999877929688 Z" fill="#FFEFC7"/>
	</g>
	<g>
		<path d="M 665.9000244140625 655.0999755859375 L 665.9000244140625 663.7999877929688 L 768.7000122070312 723.0999755859375 L 768.7000122070312 714.4000244140625 Z" fill="#FFEFC7"/>
	</g>
	<g>
		<path d="M 665.9000244140625 675.7000122070312 L 665.9000244140625 684.4000244140625 L 768.7000122070312 743.7000122070312 L 768.7000122070312 735 Z" fill="#FFEFC7"/>
	</g>
	<g>
		<path d="M 665.9000244140625 696.2999877929688 L 665.9000244140625 705 L 768.7000122070312 764.2999877929688 L 768.7000122070312 755.5999755859375 Z" fill="#FFEFC7"/>
	</g>
	<g>
		<path d="M 665.9000244140625 716.9000244140625 L 665.9000244140625 725.5999755859375 L 768.7000122070312 785 L 768.7000122070312 776.2999877929688 Z" fill="#FFEFC7"/>
	</g>
	<g>
		<path d="M 665.9000244140625 737.5 L 665.9000244140625 746.2000122070312 L 768.7000122070312 805.5999755859375 L 768.7000122070312 796.9000244140625 Z" fill="#FFEFC7"/>
	</g>
	<g>
		<path d="M 665.9000244140625 758.0999755859375 L 665.9000244140625 766.7999877929688 L 768.7000122070312 826.2000122070312 L 768.7000122070312 817.5 Z" fill="#FFEFC7"/>
	</g>
	<g>
		<path d="M 600.5 437.20001220703125 L 867.7999877929688 591.5 L 868.5 309.1000061035156 L 601.2999877929688 154.8000030517578 Z" fill="#A6D2DD"/>
		<path d="M 601.2999877929688 154.8000030517578 L 868.5 309.1000061035156 L 868.4000244140625 370.1000061035156 L 601.0999755859375 215.8000030517578 Z" fill="#47436B"/>
		<g>
			<path d="M 732.5999755859375 334.29998779296875 L 732.5 343 L 835.4000244140625 402.29998779296875 L 835.4000244140625 393.6000061035156 Z" fill="#6288A3"/>
		</g>
		<g>
			<path d="M 732.5999755859375 354.8999938964844 L 732.5 363.6000061035156 L 835.4000244140625 422.8999938964844 L 835.4000244140625 414.20001220703125 Z" fill="#6288A3"/>
		</g>
		<g>
			<path d="M 732.5999755859375 375.5 L 732.5 384.20001220703125 L 835.4000244140625 443.5 L 835.4000244140625 434.79998779296875 Z" fill="#6288A3"/>
		</g>
		<g>
			<path d="M 732.5999755859375 396.1000061035156 L 732.5 404.79998779296875 L 835.4000244140625 464.20001220703125 L 835.4000244140625 455.5 Z" fill="#6288A3"/>
		</g>
		<g>
			<path d="M 732.5999755859375 416.70001220703125 L 732.5 425.3999938964844 L 835.4000244140625 484.79998779296875 L 835.4000244140625 476.1000061035156 Z" fill="#6288A3"/>
		</g>
		<g>
			<path d="M 732.5999755859375 437.29998779296875 L 732.5 446 L 835.4000244140625 505.3999938964844 L 835.4000244140625 496.70001220703125 Z" fill="#6288A3"/>
		</g>
		<g>
			<path d="M 732.5999755859375 457.8999938964844 L 732.5 466.6000061035156 L 835.4000244140625 526 L 835.4000244140625 517.2999877929688 Z" fill="#6288A3"/>
		</g>
		<g>
			<path d="M 732.5999755859375 478.6000061035156 L 732.5 487.29998779296875 L 835.4000244140625 546.5999755859375 L 835.4000244140625 537.9000244140625 Z" fill="#6288A3"/>
		</g>
		<g>
			<path d="M 642.0999755859375 276 L 641.9000244140625 433.79998779296875 L 700.5999755859375 467.70001220703125 L 700.7999877929688 309.8999938964844 Z" fill="#FFFFFF"/>
		</g>
		<g>
			<g>
				<path fill="#E94272" d="M626.2,191c-3.8-2.2-7-0.4-7,4c0,4.4,3.1,9.8,6.9,12c3.8,2.2,7,0.4,7-4C633.1,198.6,630,193.2,626.2,191&#10;&#9;&#9;&#9;&#9;&#9;z"/>
			</g>
			<g>
				<path fill="#FED250" d="M647.3,203.2c-3.8-2.2-7-0.4-7,4c0,4.4,3.1,9.8,6.9,12c3.8,2.2,7,0.4,7-4&#10;&#9;&#9;&#9;&#9;&#9;C654.2,210.8,651.1,205.4,647.3,203.2z"/>
			</g>
			<g>
				<path fill="#6474E8" d="M668.3,215.3c-3.8-2.2-7-0.4-7,4c0,4.4,3.1,9.8,6.9,12c3.8,2.2,7,0.4,7-4&#10;&#9;&#9;&#9;&#9;&#9;C675.3,222.9,672.2,217.6,668.3,215.3z"/>
			</g>
		</g>
	</g>
	<g>
		<g>
			<path d="M 1033.4000244140625 326.6000061035156 L 1032.9000244140625 502.70001220703125 L 806.4000244140625 371.8999938964844 L 806.9000244140625 195.89999389648438 Z" fill="#FFFFFC"/>
		</g>
	</g>
	<g>
		<path fill="#47436B" d="M1009.7,457.3c2.3,1.3,4.2,4.6,4.2,7.3c0,2.7-1.9,3.8-4.2,2.4L828.8,362.5c-2.3-1.3-4.2-4.6-4.2-7.3&#10;&#9;&#9;&#9;c0-2.7,1.9-3.8,4.2-2.4L1009.7,457.3z"/>
	</g>
	<g>
		<g>
			<path d="M 906.2999877929688 304.3999938964844 L 937 345.1000061035156 L 906.0999755859375 350.20001220703125 Z" fill="#FFFFFF"/>
		</g>
		<path fill="#E94272" d="M916.7,291.5c-19.7-11.4-35.7-2.2-35.8,20.4c-0.1,22.6,15.8,50.2,35.5,61.6c19.7,11.4,35.7,2.2,35.8-20.4&#10;&#9;&#9;&#9;C952.3,330.4,936.4,302.9,916.7,291.5z M906.1,350.2l0.1-45.8l30.7,40.7L906.1,350.2z"/>
	</g>
	<g>
		<path d="M 1102.0999755859375 590.2000122070312 L 1101.699951171875 728.9000244140625 L 923.2999877929688 625.7999877929688 L 923.7000122070312 487.1000061035156 Z" fill="#A6D2DD"/>
	</g>
	<path d="M 923.5999755859375 525.7000122070312 L 1102 628.7000122070312 L 1102.0999755859375 590.2000122070312 L 923.7000122070312 487.1000061035156 Z" fill="#47436B"/>
	<path d="M 936.7000122070312 611.2999877929688 L 995.5 645.2000122070312 L 995.5999755859375 583.0999755859375 L 936.7999877929688 549.2000122070312 Z" fill="#FFFFFF"/>
	<g>
		<path d="M 1013.0999755859375 597.9000244140625 L 1013.0999755859375 604.4000244140625 L 1089.300048828125 648.2999877929688 L 1089.300048828125 641.9000244140625 Z" fill="#E94272"/>
	</g>
	<g>
		<path d="M 1013.0999755859375 612.5 L 1013.0999755859375 618.9000244140625 L 1089.300048828125 662.9000244140625 L 1089.300048828125 656.5 Z" fill="#E94272"/>
	</g>
	<g>
		<path d="M 1013.0999755859375 627.0999755859375 L 1013.0999755859375 633.5 L 1089.300048828125 677.5 L 1089.300048828125 671 Z" fill="#E94272"/>
	</g>
	<g>
		<path d="M 1013.0999755859375 641.5999755859375 L 1013.0999755859375 648.0999755859375 L 1089.300048828125 692 L 1089.300048828125 685.5999755859375 Z" fill="#E94272"/>
	</g>
	<g>
		<path fill="#E94272" d="M734.8,558.5c11,6.4,19.9,21.8,19.9,34.4c0,12.6-9,17.7-20,11.4l-73.8-42.6c-11-6.4-19.9-21.8-19.9-34.4&#10;&#9;&#9;&#9;c0-12.7,9-17.8,20-11.4L734.8,558.5z"/>
	</g>
	<g>
		<path fill="#FFFFFF" d="M592.6,903c0,0,9.4-3.5,16-1.4c6.6,2.1,14.3,6.6,14.6,9.4c0.3,2.8-8.4,11.8-15.3,10.8&#10;&#9;&#9;&#9;c-7-1-20.5-0.5-25.1,0.1c-4.5,0.6-21.6,2.8-20.2-10.5C564.1,898.1,592.6,903,592.6,903z"/>
		<path fill="#FFFFFF" d="M555.8,854.9c0,0,6.6-2.4,13.6-0.7c7,1.7,3.1,8,0,9.7c-3.1,1.8-12.9,10.1-17.4,14.3&#10;&#9;&#9;&#9;c-4.5,4.2-20.7,11-19.7-1.8C533.1,863.6,555.8,854.9,555.8,854.9z"/>
		<path fill="#CBAB9F" d="M607.9,726.2l5.6,4.2c0,0,6.6,32,0,58.5c-6.6,26.4-13.9,59.2-15.7,75.2c-1.7,16,0,41.4,0,41.4&#10;&#9;&#9;&#9;s-8.4,13.9-21.2,12.9c-12.9-1-16-4.2-16-4.2s0.3-34.1,8.7-59.9c8.4-25.7,5.9-71.3,5.9-71.3S564.4,808,562,817.4&#10;&#9;&#9;&#9;c-2.4,9.4-1.4,49.1-1.4,49.1s-10.9,14.3-20.6,12.2c-9.7-2.1-10-3.5-10-3.5s-0.7-47,5.2-64c0,0,11.1-40.7,10.4-50.8&#10;&#9;&#9;&#9;c-0.7-10.1-3-43.6,2-56.1c5-12.5,24.1,2.5,24.1,2.5L607.9,726.2z"/>
		<path fill="#F8B38D" d="M597.2,593.6h4.5c0,0,0,9.8-2.2,13.3c-2.2,3.5-6.1,7.4-7.1,11.7c-1,4.3,0,12.3,0,12.3s-20.8,5.7-22.6-8&#10;&#9;&#9;&#9;c-1.7-12.8,0-24,0-24L597.2,593.6z"/>
		<path fill="#F8B38D" d="M678.6,581.8l-1.4-4.9c0,0,3.5-3.9,4.2-8.4c0.7-4.5-2.8-11.1,0-13.9c2.8-2.8,3.1,3.8,4.9,4.9&#10;&#9;&#9;&#9;c0,0,3.1-3.1,3.5-8.7c0.3-5.6,3.5-9,4.9-7.3c1.4,1.7,5.9,10.1,5.6,15c-0.3,4.9-4.9,11.5-5.6,13.6c-0.7,2.1-2.8,9.7-2.8,9.7H678.6z&#10;&#9;&#9;&#9;"/>
		<path fill="#505274" d="M570.7,612.4l-4.9,1.8c0,0-8-2.1-14.2-0.9c-6.3,1.2-14.6,16.2-10.4,31.2c4.2,15,4.9,11.5,6.6,21.9&#10;&#9;&#9;&#9;c1.7,10.4-0.3,41.4-0.3,41.4s1,16.7,23.3,25.7c22.3,9,42.8-3.1,42.8-3.1s-1-32.4,0-39c1-6.6,2.8-23.3,0-36.5&#10;&#9;&#9;&#9;c-2.8-13.2-16.8-23.5-26.4-29.9C577.4,618.6,570.7,612.4,570.7,612.4z"/>
		<path fill="#505274" d="M596.1,644.4c0,0-10.1,7-6.6,17.4c3.5,10.4,12.5,13.2,30.6,5.9c18.1-7.3,71-37.9,74.5-90.8&#10;&#9;&#9;&#9;c0,0-4.2-3.1-17.4,0c0,0-10.4,20.1-22.3,35.4c0,0-12.5,11.2-19.1,14S596.1,644.4,596.1,644.4z"/>
		<path fill="#4B291D" d="M573.9,617.5c-10.2-4-12.4-17.1-10.7-26.4c1.7-9.4,21.3-22.2,21.3-22.2s8-2.5,13.6,4.8s5.9,17.1,3.1,22.6&#10;&#9;&#9;&#9;c-2.8,5.6-7,13.2-9.4,15.3C589.4,613.8,583.4,621.3,573.9,617.5z"/>
	</g>
	<g>
		<path fill="#FDFDFF" d="M972.2,1070.5c0,0-24.8,3.9-29.8,5.9c-5,2-3.5,8.8,1.9,11.8c5.4,2.9,17.1,1.9,27.9,3.2&#10;&#9;&#9;&#9;c10.8,1.3,19.6,5.2,28.5-1.2L972.2,1070.5z"/>
		<path fill="#FDFDFF" d="M1014.9,1022.9c0,0-13.7-4.4-21.6-4.4c-7.8,0-6.9,9.3-2.9,11.3s9.8,3.4,15.7,9.3&#10;&#9;&#9;&#9;c5.9,5.9,18.1,15.7,29.4,9.8C1035.5,1048.9,1011.9,1034.7,1014.9,1022.9z"/>
		<path fill="#F8B38D" d="M962.9,740.6c0,0,0.5,12.5,3.9,19.4c3.4,6.9,4.9,9.3,6.4,13.7c1.5,4.4,0,6.4,0,6.4s20.9,2.1,24.5-10.8&#10;&#9;&#9;&#9;l-2.5-16.2L962.9,740.6z"/>
		<path fill="#FED250" d="M1016.8,862c0,0,3.9,21.6-7.4,40.7c-11.3,19.1-20.1,21.1-20.1,47.1s1.5,56.4,7.4,69.7&#10;&#9;&#9;&#9;c5.9,13.2,6.9,59.8,3.9,70.6c0,0-9.3,3.9-20.6-2.5s-13.2-12.8-13.2-12.8c0-3.9,2-25,0-37.8c-2-12.8-15.7-56.9-20.1-83.4&#10;&#9;&#9;&#9;c-4.4-26.5-1.5-60.3-1.5-60.3S992.8,853.7,1016.8,862z"/>
		<path fill="#FED250" d="M1013.9,881.6l2.9-19.6c0,0,5.4,48.6,4.4,69.7c0,0,0,3.4,5.9,23.5c5.9,20.1,11.3,55.4,8.3,93.7&#10;&#9;&#9;&#9;c0,0-9.5,3.9-18-2.9c-0.5-0.4-1-0.8-1.5-1.2c-6.6-5.6-10.3-13.8-10.2-22.4c0.1-13-0.3-34.6-4.2-46.2&#10;&#9;&#9;&#9;c-5.9-17.4-20.1-44.9-18.4-49.3C984.9,922.3,1013.9,881.6,1013.9,881.6z"/>
		<path fill="#3AE0C1" d="M980.3,774.2c0,0-14.6,3.9-22.1,10.3c-7.5,6.4-13.4,19.6-15.4,33.4s3.9,29.9,5.4,38.3&#10;&#9;&#9;&#9;c1.5,8.3-2.5,26-3.4,31.9l0.5,5.4c0,0,24.5,2.9,42.2-8.8c17.7-11.8,29.4-22.6,29.4-22.6s-4.4-24.5,0-34.8c4-9.3,14-41.8,0.4-61&#10;&#9;&#9;&#9;c-2.8-3.9-7.7-5.6-12.3-4.4C998.9,763.3,989.8,766.8,980.3,774.2z"/>
		<path fill="#F8B38D" d="M908.5,732.7l8.6-9.1c0,0-2.9-7.8,0-18.5c2.9-10.7-3.4-21.5-4.3-22.1c-0.9-0.6-7.1,1.1-10.6,12.6&#10;&#9;&#9;&#9;c-3.4,11.4-2.3,26.3-2.3,26.3L908.5,732.7z"/>
		<path fill="#3AE0C1" d="M962.9,794.9c0,0-8.1-6.9-23.5-2.3c-15.4,4.6-22.3-14.6-22.3-31.3c0-16.7,0-37.8,0-37.8l-19.4-8.7&#10;&#9;&#9;&#9;c0,0-4,45.5,0,65.4s6.3,37,27.4,39.8C946.2,822.9,977.8,813.8,962.9,794.9z"/>
		<path fill="#8F4F51" d="M967.8,752.1c0,0-8.8-8.8-9.3-15.2c-0.5-6.4-2-17.7,11.8-22.1c0,0,11.3,1.5,15.7,2.9&#10;&#9;&#9;&#9;c4.4,1.5,17.2,14.7,18.1,20.6c1,5.9-1,18.6-6.4,23.1c-5.4,4.4-12.8,4.9-16.5,4.9S970.2,760.5,967.8,752.1z"/>
	</g>
	<g>
		<path fill="#FCB794" d="M530.4,875.8c0,0,0.5,1.5,5,6.6c4.5,5.2,7.2,7.6,15.2,4.4c7.9-3.3,4.5-18.7,4.5-18.7s-9,6-11.4,8.2&#10;&#9;&#9;&#9;C541.4,878.4,530.4,875.8,530.4,875.8z"/>
		<path fill="#FDFDFF" d="M561.4,1070.8l-1.8,2.7v14.6c0,0,8,0.5,7.5,0c-0.5-0.5-0.3-7.3,1-12.9&#10;&#9;&#9;&#9;C569.4,1069.5,561.4,1070.8,561.4,1070.8z"/>
		<path fill="#4A3D57" d="M545.9,904.4c0,0,1.1,26.3,4.7,51.6c3.6,25.3,3.2,53.3,7.6,76c4.4,22.7,3.1,30.7,3.1,30.7&#10;&#9;&#9;&#9;s10.2,5.8,15.1,3.6l1.6-3.1c0,0-2.9-19.5-0.2-52.4c2.7-32.9,7.7-55.4,5.8-69.8c-2-14.4-21.8-50-21.8-50L545.9,904.4z"/>
		<path fill="#FDFDFF" d="M583.2,1070.1c-0.9-0.6-3.1-2.9-3.6-4.2c-0.9-2-2.6-3.5-4.7-4.1c-5.8-1.6-12.9,0.2-12.9,0.2&#10;&#9;&#9;&#9;s-3,1.8-2.5,11.5c0,0,5.3,0.8,8.5,4.5s5.3,8.8,11.3,8.5c10-0.5,6.9-8,6.9-8S586.9,1072.5,583.2,1070.1z"/>
		<path fill="#FDFDFF" d="M587,1074.7l-1.1,2.8c0,0,1.1,14,1.1,17.8v2.8h8.1c0,0,1-16.8-1.7-21.4C590.8,1072,587,1074.7,587,1074.7z&#10;&#9;&#9;&#9;"/>
		<path fill="#4A3D57" d="M572.9,917.8c0,0,2.2,16.9,12,31.6c9.8,14.7,12.9,27.1,12.9,27.1s-4.9,28.5-4,45.3&#10;&#9;&#9;&#9;c0.9,16.9-4.4,42.2-4.4,42.2s5.9,10.2,12.3,11.6c6.4,1.3,8.2-2.7,8.2-2.7s0.9-29.3,5.3-46.7c4.4-17.3,16.4-45.3,12.9-67.1&#10;&#9;&#9;&#9;c-3.6-21.8-12-43-12-43L572.9,917.8z"/>
		<path fill="#C04075" d="M544.5,902.6c0,0-10.2,32.6-3.4,50.2c6.8,17.6,9.5,41.9,9.5,41.9s12.1,7,27.9,8.1c15.8,1.1,30-2.2,38.8-3&#10;&#9;&#9;&#9;c8.7-0.9,11.4-7.7,11.4-7.7s4.3-22.2,2.1-33.7c-2.2-11.5-14.7-42.2-14.7-42.2S547.9,908.6,544.5,902.6z"/>
		<path fill="#FCB794" d="M603.1,772.1c0,0,2.1,19-9.7,26.7v10.4c0,0-14.1,2.6-20.5-10.2c-6.4-12.8,17.2-17.8,17.2-17.8L603.1,772.1&#10;&#9;&#9;&#9;z"/>
		<path fill="#CBE9ED" d="M571.2,804.3c0,0,24,2.7,38,14c0,0,7.2,2.3,6.8,19c-0.5,16.8-2.7,34,0,48.5c2.7,14.5,0,30.3,0,30.3&#10;&#9;&#9;&#9;s-10.5,14.5-34.5,10.4c-24-4.1-37.1-24-37.1-24s10-22.6,10.6-34.4c0.7-11.8-7.9-34-10.6-43c-2.7-9.1,2.7-21.7,10.6-23.1&#10;&#9;&#9;&#9;C563.1,800.7,571.2,804.3,571.2,804.3z"/>
		<path fill="#CBE9ED" d="M555.1,809.7l-4.1-5.8c0,0-20.1,14.5-27.8,21.3c-7.7,6.8-27.2,28.5-25.8,33.5c1.4,5,29.9,21.7,34.4,23.6&#10;&#9;&#9;&#9;c4.5,1.8,12-5.9,12-5.9l-17.6-19.9c0,0,20.1-14.5,26.4-25.8C559,819.2,555.1,809.7,555.1,809.7z"/>
		<path fill="#CBE9ED" d="M607.5,817c0,0,15.7,8.6,33.5,28.9c17.7,20.3,18.8,20.3,20.3,24.3c1.5,4.1-6.1,12.7-15.7,18.3&#10;&#9;&#9;&#9;c-9.6,5.6-22.8,11.2-22.8,11.2l-8.1-7.6l22.8-21.8c0,0-24.2-13.2-32.6-25.9C596.3,831.7,600.9,819.5,607.5,817z"/>
		<path fill="#FCB794" d="M622.3,897.9c0-2.5-1.3-4.8-3.4-6.2c-4.2-2.9-12.1-8.2-14.2-9.3c-2.9-1.5-5.3,5.1,0,11.2&#10;&#9;&#9;&#9;c5.3,6.1,4.7,6.1,11.3,6.1C620.7,899.6,622.3,900.1,622.3,897.9z"/>
		<path fill="#FDFDFF" d="M594,1062c0,0-4-1-7,3.6c-3,4.6-1.7,11.2-1.1,11.9s5.9,0.5,9.6,4.3s6.8,13,13,14.8&#10;&#9;&#9;&#9;c6.1,1.8,12.1,0,14.5-4.3c2.3-4.3-0.2-8.5-3.7-10c-3.5-1.5-8-4.3-10.1-11C606.9,1064.7,594,1062,594,1062z"/>
		<path fill="#4B291D" d="M593,754.5c0,0-16.3-3.2-24.9,6.8c-8.6,10-8.2,18.1-7.7,24.5c0.5,6.3,4.5,15.9,10.9,18.6&#10;&#9;&#9;&#9;c6.3,2.7,18.6-4.1,21.7-12.7c3.2-8.6,8.2-10.4,9.5-16.8C603.8,768.5,603.8,759.4,593,754.5z"/>
		<path fill="#4B291D" d="M564.9,781.6c0,0-6.8-2.7-11.8,7.2c-5,10-2.3,21.3,5.9,30.3c8.2,9.1,9.1,11.3,9.1,11.3s14.5-19.5,7.7-34&#10;&#9;&#9;&#9;C568.9,782.1,564.9,781.6,564.9,781.6z"/>
	</g>
	<g>
		<path fill="#FCB794" d="M603.5,1069.6c0,0,5.7,1.4,7.4,6.9c1.7,5.5-2,9.7-2.9,11.4c-0.9,1.7-3.9,2.1-4.5,3c-0.6,0.8-4,2.5-6.1,2.1&#10;&#9;&#9;&#9;c-2.1-0.4-5.1-10.2-3-16.5C596.5,1070.2,603.5,1069.6,603.5,1069.6z"/>
		<path fill="#C04075" d="M518.3,1104c-3.1-14.3-0.9-45.1-0.9-45.1s19.4-3.7,27.5,15c9.9-5.3,42.3-2.1,42.3-2.1s10.4,35.2,12.2,50.8&#10;&#9;&#9;&#9;c1.8,15.6-3.5,35.7-9.6,50.4c-6.1,14.7-11.8,58-12.3,60.6c-0.4,2.7,0,7.6,0,7.6l-16-19.2c0,0,1.4-29.4,3.1-45.9&#10;&#9;&#9;&#9;c1.8-16.5,3.8-33.4,3.8-33.4s-8.9-28.5-15.5-37.4l-3-4.9c0,0-0.4-0.6-1.1-1.5c1.2,30.8-3.4,62.2-3.8,70.2c-0.4,8.9,0,53.9,0,53.9&#10;&#9;&#9;&#9;l-12.5,4.5c0,0,0-7.1-4-27.2c-4-20.1-6.2-70-6.7-78.9S521.4,1118.3,518.3,1104z"/>
		<path fill="#FCB794" d="M574.9,925.6l-0.3-3.2c0,0,3.6-7,7-10.1c3.4-3.1,14.4-9.5,16.6-10.7c2.2-1.1,5.4-2.8,8.3-2.8&#10;&#9;&#9;&#9;c2.9,0,0.9,4.5-4.4,7.9s-7.9,5.5-7.9,5.5s-0.8,3.7,1.1,3.7c2,0,2.9,2.2,2.9,2.2s-0.9,5.6-2.9,7.4c-2,1.8-7,6.3-7,6.3l-16.7,8.4&#10;&#9;&#9;&#9;L574.9,925.6z"/>
		<path fill="#CBE9ED" d="M569.1,976.4c0,0,14.4-29.4,16.2-34c1.8-4.6,4.6-11.3,4.6-11.3l-15-10.4c0,0-19.6,21.7-20.5,22.3&#10;&#9;&#9;&#9;c-0.9,0.6-11.3,22-11.3,23.3c0,1.2,4.8,15.6,4.8,15.6L569.1,976.4z"/>
		<path fill="#FCB794" d="M565.9,967c0-4.6,0-9.9,0-9.9c7.5-7,5.8-16.8,5.8-16.8l0.2-4.8c0,0-5.2,7.7-8.7,10.5&#10;&#9;&#9;&#9;c-3.5,2.8-4.6,13-15.4,14.4c0,0-4.9,14.4,6,12.3C564.6,970.5,565.9,967,565.9,967z"/>
		<path fill="#965250" d="M568.8,944.5c0.4-1,3.1-9.1,3.1-9.1s1.7-3.5,0-11.2c-1.7-7.7-10.2-13.3-19.3-12.6&#10;&#9;&#9;&#9;c-9.1,0.7-24.9,7-23.5,23.9c0,0-5.6,3.5-8.1,16.5c-2.5,13,3.2,20.7,8.8,26c5.6,5.3,6.7,13.7,6.7,13.7s13.3-9.5,11.2-31.2&#10;&#9;&#9;&#9;C547.7,960.3,560.7,962.4,568.8,944.5z"/>
		<path fill="#CBE9ED" d="M523.5,963.5c-19.3,12.6-3.9,33,0.4,45.6c4.2,12.6,2.8,28.8-3.4,35.1s-6.4,16.1-6.4,16.1&#10;&#9;&#9;&#9;c1.8,4.6,18.6,30.5,47.4,27c28.8-3.5,30.5-18.6,30.5-18.6s-0.7-11.2-6.4-23.2c-5.7-11.9-2-23.9-0.6-37.5c1.4-13.7,0-27.4,0-27.4&#10;&#9;&#9;&#9;c-17.9-17.2-41-21.4-41-21.4L523.5,963.5z"/>
		<path fill="#CBE9ED" d="M591.9,988.8c0,0-4.4-10.2-11-6.9c-6.6,3.4-11.5,6-12.3,12.2c-0.9,6.2,4,30.9,3.3,37&#10;&#9;&#9;&#9;c-0.7,6.2,4.2,17.6,7.3,23.4c3.1,5.7,14.6,27.3,14.6,27.3l12.3-9.4c0,0-8.8-28.1-9.6-33.4c-0.8-5.3-4.5-28.7-4.5-28.7V988.8z"/>
		<path fill="#965250" d="M536.5,991.5c0,0-1.1-8.4-6.7-13.7c-5.6-5.3-11.2-13-8.8-26c2.5-13,8.1-16.5,8.1-16.5s13.7-0.4,18.6,24.9&#10;&#9;&#9;&#9;C549.8,982.1,536.5,991.5,536.5,991.5z"/>
		<path fill="#343254" d="M541.8,1237.2c0,0-3.1-0.5-6.1,4.1c-2.9,4.6-2.5,7.5-2.5,7.5h-4.7c0,0-1.6-11.2,1.1-15.2&#10;&#9;&#9;&#9;C532.4,1229.6,541,1232.5,541.8,1237.2z"/>
		<path fill="#615A8D" d="M539.8,1222.1c0,0,3.2-1.2,5.3,0.9c2.1,2,1.4,11,9.2,12.9c7.7,1.9,2.2,12.1,2.2,12.1s-6.3,1.7-9.9,0&#10;&#9;&#9;&#9;c-3.6-1.7-4.3-15.4-16.8-14.5C529.7,1233.6,527,1219.9,539.8,1222.1z"/>
		<path fill="#343254" d="M566.3,1242.8c0,0-5.2,3.6-4.7,8.7s0,8.7,0,8.7h-7.2c0,0-0.9-16.1,1.6-22.4&#10;&#9;&#9;&#9;C558.4,1231.6,566.3,1242.8,566.3,1242.8z"/>
		<path fill="#615A8D" d="M564.7,1223.3c0,0,5,2,8.1,9c3.1,6.9,5.8,11,9.9,11.4c4,0.4,7.9,0.9,10.5,3.1c0,0,1.8,5.2-0.9,9&#10;&#9;&#9;&#9;c-2.7,3.8-8.8,5.4-13,3.8c-4.2-1.6-8.9-13-14.5-16.8c-5.6-3.8-9.2-3.1-9.9-2.9c-0.7,0.2-2.4-14.2,6.8-17.7L564.7,1223.3z"/>
	</g>
	<g>
		<g>
			<g enable-background="new    ">
				<g>
					<path d="M 588.7000122070312 465.5 L 588.4000244140625 538.9000244140625 L 553.7000122070312 518.9000244140625 L 553.9000244140625 536.7999877929688 L 535.2000122070312 508.20001220703125 L 498.79998779296875 487.20001220703125 L 499 413.70001220703125 Z" fill="#3AE0C1"/>
				</g>
				<g>
					<path d="M 588.7000122070312 465.5 L 593.5999755859375 462.6000061035156 L 593.4000244140625 536.0999755859375 L 588.4000244140625 538.9000244140625 Z" fill="#27C4A6"/>
				</g>
				<g>
					<path d="M 499 413.70001220703125 L 504 410.8999938964844 L 593.5999755859375 462.6000061035156 L 588.7000122070312 465.5 Z" fill="#27C4A6"/>
				</g>
			</g>
		</g>
		<g>
			<g>
				<path fill="#FFFFFF" d="M520.7,455.4c-4.2-2.4-7.6-0.5-7.6,4.4c0,4.8,3.4,10.7,7.6,13.1c4.2,2.4,7.6,0.5,7.6-4.3&#10;&#9;&#9;&#9;&#9;&#9;C528.3,463.7,524.9,457.8,520.7,455.4z"/>
			</g>
			<g>
				<path fill="#FFFFFF" d="M543.7,468.7c-4.2-2.4-7.6-0.5-7.6,4.4c0,4.8,3.4,10.7,7.6,13.1c4.2,2.4,7.6,0.5,7.6-4.3&#10;&#9;&#9;&#9;&#9;&#9;C551.4,477,548,471.1,543.7,468.7z"/>
			</g>
			<g>
				<path fill="#FFFFFF" d="M566.8,482c-4.2-2.4-7.6-0.5-7.6,4.4c0,4.8,3.4,10.7,7.6,13.1c4.2,2.4,7.6,0.5,7.6-4.4&#10;&#9;&#9;&#9;&#9;&#9;C574.4,490.3,571,484.4,566.8,482z"/>
			</g>
		</g>
	</g>
	<g>
		<g>
			<g enable-background="new    ">
				<g>
					<path d="M 572.2999877929688 829.5999755859375 L 572.0999755859375 898.9000244140625 L 539.2000122070312 880 L 538.7999877929688 895.2999877929688 L 521.7999877929688 869.9000244140625 L 487.3999938964844 850 L 487.6000061035156 780.7000122070312 Z" fill="#FED250"/>
				</g>
				<g>
					<path d="M 572.2999877929688 829.5999755859375 L 576.9000244140625 826.9000244140625 L 576.7000122070312 896.2000122070312 L 572.0999755859375 898.9000244140625 Z" fill="#F4BD37"/>
				</g>
				<g>
					<path d="M 487.6000061035156 780.7000122070312 L 492.20001220703125 777.9000244140625 L 576.9000244140625 826.9000244140625 L 572.2999877929688 829.5999755859375 Z" fill="#F4BD37"/>
				</g>
			</g>
		</g>
		<g>
			<g>
				<path fill="#FFFFFC" d="M508,820c-4-2.3-7.2-0.5-7.2,4.1c0,4.6,3.2,10.1,7.2,12.4c4,2.3,7.2,0.5,7.2-4.1&#10;&#9;&#9;&#9;&#9;&#9;C515.2,827.8,512,822.3,508,820z"/>
			</g>
			<g>
				<path fill="#FFFFFC" d="M529.8,832.6c-4-2.3-7.2-0.5-7.2,4.1c0,4.6,3.2,10.1,7.2,12.4c4,2.3,7.2,0.5,7.2-4.1&#10;&#9;&#9;&#9;&#9;&#9;C537,840.4,533.8,834.9,529.8,832.6z"/>
			</g>
			<g>
				<path fill="#FFFFFC" d="M551.6,845.2c-4-2.3-7.2-0.5-7.2,4.1c0,4.6,3.2,10.1,7.2,12.4c4,2.3,7.2,0.5,7.2-4.1&#10;&#9;&#9;&#9;&#9;&#9;C558.8,853,555.6,847.4,551.6,845.2z"/>
			</g>
		</g>
	</g>
	<g>
		<g enable-background="new    ">
			<g>
				<path d="M 455.79998779296875 701.9000244140625 L 456.20001220703125 903.2000122070312 L 425.5 920.9000244140625 L 425.1000061035156 719.5999755859375 Z" fill="#3AE0C1"/>
			</g>
			<g>
				<path d="M 425.5 920.9000244140625 L 395.1000061035156 903.2000122070312 L 394.6000061035156 701.9000244140625 L 425.1000061035156 719.5999755859375 Z" fill="#2AC6A8"/>
			</g>
			<g>
				<path d="M 425.1000061035156 719.5999755859375 L 394.6000061035156 701.9000244140625 L 425.29998779296875 684.2000122070312 L 455.79998779296875 701.9000244140625 Z" fill="#56F4D5"/>
			</g>
		</g>
		<g enable-background="new    ">
			<g>
				<path d="M 407.3999938964844 752.5999755859375 L 407.70001220703125 931.2000122070312 L 377 948.9000244140625 L 376.70001220703125 770.2999877929688 Z" fill="#E94272"/>
			</g>
			<g>
				<path d="M 377 948.9000244140625 L 346.6000061035156 931.2000122070312 L 346.20001220703125 752.5999755859375 L 376.70001220703125 770.2999877929688 Z" fill="#DB2E68"/>
			</g>
			<g>
				<path d="M 376.70001220703125 770.2999877929688 L 346.20001220703125 752.5999755859375 L 376.8999938964844 734.9000244140625 L 407.3999938964844 752.5999755859375 Z" fill="#F4588C"/>
			</g>
		</g>
		<g enable-background="new    ">
			<g>
				<path d="M 359 807.7999877929688 L 359.29998779296875 959.2000122070312 L 328.6000061035156 976.9000244140625 L 328.29998779296875 825.5 Z" fill="#FED250"/>
			</g>
			<g>
				<path d="M 328.6000061035156 976.9000244140625 L 298.1000061035156 959.2000122070312 L 297.8999938964844 807.7999877929688 L 328.29998779296875 825.5 Z" fill="#F4BD37"/>
			</g>
			<g>
				<path d="M 328.29998779296875 825.5 L 297.8999938964844 807.7999877929688 L 328.6000061035156 790.0999755859375 L 359 807.7999877929688 Z" fill="#FFD366"/>
			</g>
		</g>
	</g>
	<g>
		<path d="M 707.4000244140625 910.5999755859375 L 777.2999877929688 950.4000244140625 L 777.2999877929688 936.2000122070312 L 706.0999755859375 896.2999877929688 Z" fill="#272747"/>
		<path d="M 768.7000122070312 720.9000244140625 L 838.5999755859375 760.7000122070312 L 838.5999755859375 746.5999755859375 L 767.4000244140625 706.5999755859375 Z" fill="#272747"/>
		<path d="M 746 784.0999755859375 L 815.9000244140625 823.9000244140625 L 815.9000244140625 809.7999877929688 L 744.7000122070312 769.7999877929688 Z" fill="#272747"/>
		<path d="M 688.7999877929688 962.7999877929688 L 758.5999755859375 1002.7000122070312 L 758.5999755859375 988.5 L 687.4000244140625 948.5999755859375 Z" fill="#272747"/>
		<path d="M 818.7000122070312 548.7000122070312 L 888.5999755859375 588.5999755859375 L 888.5999755859375 574.4000244140625 L 817.4000244140625 534.5 Z" fill="#272747"/>
		<path d="M 801.4000244140625 606.5 L 871.2000122070312 646.4000244140625 L 871.2000122070312 632.2000122070312 L 800 592.2999877929688 Z" fill="#272747"/>
		<path d="M 722.7999877929688 850.7999877929688 L 792.5999755859375 890.5999755859375 L 792.5999755859375 876.5 L 721.4000244140625 836.5 Z" fill="#272747"/>
		<g>
			<path d="M 839.7999877929688 428.29998779296875 L 849.2000122070312 421.79998779296875 L 862.2000122070312 429.5 L 853 435.79998779296875 Z" fill="#424270"/>
			<path d="M 862.2000122070312 429.5 L 687.0999755859375 989.5 L 678.2000122070312 992.7000122070312 L 830.9000244140625 483.6000061035156 L 853 435.79998779296875 Z" fill="#272747"/>
			<path d="M 678.2000122070312 992.7000122070312 L 853 435.79998779296875 L 839.7999877929688 428.29998779296875 L 665.0999755859375 985.0999755859375 Z" fill="#343259"/>
		</g>
		<path d="M 808.2000122070312 546.2999877929688 L 888.5999755859375 592.2000122070312 L 888.5999755859375 578 L 817.4000244140625 538.0999755859375 Z" fill="#343259"/>
		<path d="M 790.7999877929688 604.2000122070312 L 871.2000122070312 650 L 871.2000122070312 635.9000244140625 L 800 595.9000244140625 Z" fill="#343259"/>
		<path d="M 786.2000122070312 660.5999755859375 L 856.0999755859375 700.5 L 856.0999755859375 686.2999877929688 L 784.9000244140625 646.4000244140625 Z" fill="#272747"/>
		<path d="M 775.7000122070312 658.2999877929688 L 856.0999755859375 704.0999755859375 L 856.0999755859375 690 L 784.9000244140625 650 Z" fill="#343259"/>
		<path d="M 758.2000122070312 718.5 L 838.5999755859375 764.4000244140625 L 838.5999755859375 750.2000122070312 L 767.4000244140625 710.2999877929688 Z" fill="#343259"/>
		<path d="M 735.5 781.7000122070312 L 815.9000244140625 827.5999755859375 L 815.9000244140625 813.4000244140625 L 744.7000122070312 773.5 Z" fill="#343259"/>
		<path d="M 712.2000122070312 848.4000244140625 L 792.5999755859375 894.2999877929688 L 792.5999755859375 880.0999755859375 L 721.4000244140625 840.2000122070312 Z" fill="#343259"/>
		<path d="M 696.9000244140625 908.2000122070312 L 777.2999877929688 954 L 777.2999877929688 939.9000244140625 L 706.0999755859375 899.9000244140625 Z" fill="#343259"/>
		<path d="M 678.2000122070312 960.4000244140625 L 758.5999755859375 1006.2999877929688 L 758.5999755859375 992.0999755859375 L 687.4000244140625 952.2000122070312 Z" fill="#343259"/>
		<g>
			<path d="M 916.9000244140625 470.79998779296875 L 926.2000122070312 464.29998779296875 L 939.2000122070312 472 L 930 478.29998779296875 Z" fill="#424270"/>
			<path d="M 939.2000122070312 472 L 764.0999755859375 1032 L 755.2999877929688 1035.199951171875 L 907.9000244140625 526.0999755859375 L 930 478.29998779296875 Z" fill="#272747"/>
			<path d="M 755.2999877929688 1035.199951171875 L 930 478.29998779296875 L 916.9000244140625 470.79998779296875 L 742.0999755859375 1027.5999755859375 Z" fill="#343259"/>
		</g>
		<path fill="#FDFDFF" d="M753.4,836.9c0,0-7.7,3.3-9.1,7.7c-1.5,4.4-0.7,9.8,2.2,12c2.9,2.2,10.6,2.9,16.4,6.6&#10;&#9;&#9;&#9;c5.8,3.6,10.9,10.6,15.7,11.7c4.7,1.1,14.2-2.6,12-7.3c-2.2-4.7-14.5-14.5-14.5-14.5L753.4,836.9z"/>
		<path fill="#FDFDFF" d="M708.6,918.6c0,0-0.4,5.1,0,10.9s4,7.3,11.7,5.5c7.7-1.8,7.3-9.5,15.7-12.8c8.4-3.3,13.1-0.7,15.7-3.6&#10;&#9;&#9;&#9;c2.6-2.9-1.1-6.6-8-9.1c-6.9-2.6-19.7,0-19.7,0L708.6,918.6z"/>
		<path fill="#4A3D57" d="M799,738.5c-16.8,0-50.3,5.8-50.3,5.8l-24.4,15.3l-30.7-5.1c0,0,1.8,22.6,7.3,39.7&#10;&#9;&#9;&#9;c5.5,17.1,3.6,44.1,2.9,51c-0.7,6.9-0.4,55,4.7,73.3c0,0,9.1,4.4,16,0c6.9-4.4,8-7.3,8-7.3s-1.1-41.2,0-53.6&#10;&#9;&#9;&#9;c0.9-9.6,6.8-40.5,8.5-61.9c18.3,0.2,36.7-13.9,36.7-13.9s-16.2,32.4-19.6,39c-3.4,6.6-7.8,16.6-7.8,16.6s13.1,14,27.3,15.8&#10;&#9;&#9;&#9;c0,0,15.7-35.7,24.4-51.4c8.7-15.7,20.8-37.2,20.4-47.4C822.3,744.4,815.8,738.5,799,738.5z"/>
		<path fill="#F8B38D" d="M769.8,644.9l4-4c0,0,13.5-1.1,18.2,0c4.7,1.1,19.3,5.6,19.7,13c0.4,7.4-4,3.9-11.3,0&#10;&#9;&#9;&#9;c-7.3-3.9-9.1-1.2-9.6,0c-0.6,1.2-3.5,7,0,10c3.5,2.9,4.5,1.7,6,6c1.5,4.2-4.4,1.3-10.2-4.4c-5.8-5.6-12.8-10.4-12.8-10.4&#10;&#9;&#9;&#9;L769.8,644.9z"/>
		<path fill="#FED250" d="M745.3,634.3c0,0,24.1,3.3,28.5,6.6v14.2c0,0-22.4,1.1-28.5,4.4c-6.1,3.3-10.5-12.6-10.5-12.6L745.3,634.3&#10;&#9;&#9;&#9;z"/>
		<path fill="#F8B38D" d="M742.9,602.5c0,0,10.4,6,12.6,10.4c2.2,4.4,0,19.2-3.3,21.4c-3.3,2.2-2.4,11.5-2.6,18.1&#10;&#9;&#9;&#9;c0,0-11.1,3.3-19.3,0c-8.2-3.3-9.9-14.2-9.9-14.2L742.9,602.5z"/>
		<path fill="#FED250" d="M715.9,632.8c0,0-13.1,2.9-20,9.5c-6.9,6.6-5.5,28.1-2.2,35.7c3.3,7.7,1.8,69.6,0,76.5&#10;&#9;&#9;&#9;c0,0,5.8,14.6,18.6,19.3c12.8,4.7,27.3,5.8,38.3,0c10.9-5.8,12-14.6,12-14.6s-2.6-24.8-1.5-40.5c1.1-15.7,12-44.5-1.1-57.2&#10;&#9;&#9;&#9;c-13.1-12.8-23-16.7-23-16.7S722.4,644,715.9,632.8z"/>
		<path fill="#F8B38D" d="M843.8,684.2l2.2-8c0,0,2.2-7.3,5.8-9.8c3.6-2.6,2.2,0.6,6.9,3.4c4.7,2.8,12,4.2,16.8,2&#10;&#9;&#9;&#9;c4.7-2.2,6.2,0,4,5.8c-2.2,5.8-4,20.4-33.5,13.1L843.8,684.2z"/>
		<path fill="#FED250" d="M756.4,669.9c0,0-10.6-17.1,0-11.7c10.6,5.5,37.5,35.8,54.3,33.3c16.8-2.6,35.4-15.3,35.4-15.3&#10;&#9;&#9;&#9;s10.6,8.4,3.3,18.2c0,0-14.6,21.1-42.6,23C778.6,719.2,743.2,688.5,756.4,669.9z"/>
		<path fill="#8F4F51" d="M745.1,611.7c0,0,2.3-9.5-6.7-14.6c-9-5.1-18.5,7.7-23.6,11.7c-5.1,4-7.7,18.6-4,25.1&#10;&#9;&#9;&#9;c3.6,6.6,7.7,10.2,16.4,10.9c8.7,0.7,13.8-9.1,13.5-14.9C740.3,624.1,745.1,611.7,745.1,611.7z"/>
	</g>
	<g>
		<g>
			<path d="M 789.9000244140625 1052.9000244140625 L 782 1057.5 L 781.9000244140625 1081.0999755859375 L 789.7999877929688 1076.5 Z" fill="#C5D2D3"/>
			<path d="M 690.0999755859375 1057.5 L 682.0999755859375 1052.9000244140625 L 682 1076.5 L 690 1081.0999755859375 Z" fill="#C5D2D3"/>
			<path fill="#C5D2D3" d="M713,1097.3c0-0.1,0-0.2,0-0.3c0-0.1,0-0.2,0.1-0.3c0-0.1,0-0.2,0.1-0.3c0-0.1,0.1-0.2,0.1-0.3&#10;&#9;&#9;&#9;&#9;c0-0.1,0.1-0.2,0.1-0.3c0-0.1,0.1-0.2,0.1-0.3c0-0.1,0.1-0.2,0.1-0.3c0-0.1,0.1-0.2,0.1-0.3c0-0.1,0.1-0.2,0.1-0.3&#10;&#9;&#9;&#9;&#9;c0.1-0.1,0.1-0.2,0.2-0.3c0.1-0.1,0.1-0.2,0.2-0.3c0.1-0.1,0.2-0.3,0.3-0.4c0.1-0.1,0.1-0.2,0.2-0.2c0.1-0.1,0.2-0.3,0.3-0.4&#10;&#9;&#9;&#9;&#9;c0-0.1,0.1-0.1,0.1-0.2c0.2-0.2,0.4-0.5,0.6-0.7c0.1-0.1,0.1-0.1,0.2-0.2c0.2-0.2,0.3-0.3,0.5-0.5c0.1-0.1,0.2-0.2,0.3-0.2&#10;&#9;&#9;&#9;&#9;c0.1-0.1,0.2-0.2,0.3-0.3c0.1-0.1,0.2-0.2,0.3-0.3c0.1-0.1,0.2-0.2,0.4-0.3c0.1-0.1,0.2-0.2,0.3-0.3c0.1-0.1,0.3-0.2,0.4-0.3&#10;&#9;&#9;&#9;&#9;c0.1-0.1,0.2-0.2,0.4-0.2c0.1-0.1,0.3-0.2,0.4-0.3c0.2-0.1,0.3-0.2,0.5-0.3c0.3-0.2,0.7-0.4,1.1-0.6c0.1-0.1,0.2-0.1,0.3-0.2&#10;&#9;&#9;&#9;&#9;c0.3-0.1,0.6-0.3,0.9-0.4c0.1,0,0.2-0.1,0.3-0.1c0.4-0.2,0.8-0.3,1.1-0.5c0.1,0,0.1,0,0.2-0.1c0.3-0.1,0.7-0.2,1-0.4&#10;&#9;&#9;&#9;&#9;c0.1,0,0.3-0.1,0.4-0.1c0.2-0.1,0.4-0.1,0.6-0.2c0.2,0,0.3-0.1,0.5-0.1c0.2-0.1,0.4-0.1,0.6-0.2c0.2,0,0.3-0.1,0.5-0.1&#10;&#9;&#9;&#9;&#9;c0.2,0,0.4-0.1,0.6-0.1c0.2,0,0.3-0.1,0.5-0.1c0.2,0,0.4-0.1,0.6-0.1c0.2,0,0.3-0.1,0.5-0.1c0.4-0.1,0.9-0.1,1.3-0.2&#10;&#9;&#9;&#9;&#9;c0.1,0,0.1,0,0.2,0c0.4-0.1,0.8-0.1,1.2-0.1c0.1,0,0.3,0,0.4,0c0.2,0,0.5,0,0.7-0.1c0.2,0,0.3,0,0.5,0c0.3,0,0.5,0,0.8,0&#10;&#9;&#9;&#9;&#9;c0.1,0,0.3,0,0.4,0c0.2,0,0.5,0,0.7,0c0.2,0,0.3,0,0.5,0c0.2,0,0.5,0,0.7,0c0.1,0,0.3,0,0.4,0c0.7,0,1.5,0.1,2.2,0.1&#10;&#9;&#9;&#9;&#9;c0,0,0,0,0.1,0c0.7,0.1,1.5,0.1,2.2,0.2c0.1,0,0.1,0,0.2,0c0.3,0,0.6,0.1,0.9,0.1c0.1,0,0.3,0,0.4,0.1c0.2,0,0.5,0.1,0.7,0.1&#10;&#9;&#9;&#9;&#9;c0.1,0,0.2,0.1,0.4,0.1c0.3,0.1,0.5,0.1,0.8,0.2c0.1,0,0.3,0.1,0.4,0.1c0.2,0.1,0.5,0.1,0.7,0.2c0.1,0,0.3,0.1,0.4,0.1&#10;&#9;&#9;&#9;&#9;c0.4,0.1,0.7,0.2,1.1,0.3c0.1,0,0.1,0,0.2,0.1c0.4,0.1,0.8,0.3,1.2,0.4c0.1,0,0.2,0.1,0.3,0.1c0.5,0.2,1,0.4,1.5,0.7&#10;&#9;&#9;&#9;&#9;c0.1,0,0.1,0,0.1,0.1c0.5,0.3,1,0.5,1.5,0.8c4.5,2.6,6.8,6.1,6.8,9.5l0.1-23.6c0-3.4-2.3-6.9-6.8-9.5c-0.5-0.3-1-0.5-1.5-0.8&#10;&#9;&#9;&#9;&#9;c-0.1,0-0.1-0.1-0.1-0.1c-0.5-0.2-1-0.5-1.5-0.7c0,0-0.1,0-0.1-0.1c0,0-0.1,0-0.1,0c-0.4-0.2-0.8-0.3-1.2-0.4&#10;&#9;&#9;&#9;&#9;c-0.1,0-0.1,0-0.2-0.1c-0.4-0.1-0.7-0.2-1.1-0.3c-0.1,0-0.1,0-0.2-0.1c-0.1,0-0.1,0-0.2-0.1c-0.2-0.1-0.5-0.1-0.7-0.2&#10;&#9;&#9;&#9;&#9;c-0.1,0-0.3-0.1-0.4-0.1c-0.3-0.1-0.5-0.1-0.8-0.2c-0.1,0-0.2,0-0.3-0.1c0,0-0.1,0-0.1,0c-0.2,0-0.5-0.1-0.7-0.1&#10;&#9;&#9;&#9;&#9;c-0.1,0-0.3-0.1-0.4-0.1c-0.3-0.1-0.6-0.1-0.9-0.1c-0.1,0-0.1,0-0.2,0c0,0,0,0,0,0c-0.7-0.1-1.5-0.2-2.2-0.2c0,0,0,0,0,0&#10;&#9;&#9;&#9;&#9;c0,0,0,0,0,0c-0.7-0.1-1.5-0.1-2.2-0.1c0,0,0,0,0,0c-0.1,0-0.2,0-0.4,0c-0.2,0-0.5,0-0.7,0c-0.2,0-0.3,0-0.5,0&#10;&#9;&#9;&#9;&#9;c-0.2,0-0.5,0-0.7,0c0,0-0.1,0-0.1,0c-0.1,0-0.2,0-0.3,0c-0.3,0-0.5,0-0.8,0c-0.2,0-0.3,0-0.5,0c-0.2,0-0.5,0-0.7,0.1&#10;&#9;&#9;&#9;&#9;c-0.1,0-0.2,0-0.3,0c-0.1,0-0.1,0-0.2,0c-0.4,0-0.8,0.1-1.2,0.1c-0.1,0-0.1,0-0.2,0c-0.4,0.1-0.9,0.1-1.3,0.2c0,0-0.1,0-0.1,0&#10;&#9;&#9;&#9;&#9;c-0.1,0-0.2,0-0.3,0.1c-0.2,0-0.4,0.1-0.6,0.1c-0.2,0-0.3,0.1-0.5,0.1c-0.2,0-0.4,0.1-0.6,0.1c-0.2,0-0.3,0.1-0.5,0.1&#10;&#9;&#9;&#9;&#9;c-0.2,0-0.4,0.1-0.6,0.2c-0.2,0-0.3,0.1-0.5,0.1c-0.2,0.1-0.4,0.1-0.6,0.2c-0.1,0-0.2,0-0.2,0.1c-0.1,0-0.1,0-0.2,0.1&#10;&#9;&#9;&#9;&#9;c-0.2,0.1-0.4,0.1-0.6,0.2l0.1-19.4l0-6.5l-0.1,23.6l0,2.3c-0.1,0-0.3,0.1-0.4,0.1c-0.1,0-0.1,0-0.2,0.1&#10;&#9;&#9;&#9;&#9;c-0.4,0.1-0.8,0.3-1.1,0.5c-0.1,0-0.2,0.1-0.3,0.1c-0.3,0.1-0.6,0.3-0.9,0.4c-0.1,0.1-0.2,0.1-0.3,0.2c-0.4,0.2-0.7,0.4-1.1,0.6&#10;&#9;&#9;&#9;&#9;c-0.1,0.1-0.2,0.1-0.3,0.2c-0.1,0.1-0.2,0.1-0.3,0.2c-0.1,0.1-0.3,0.2-0.4,0.3c-0.1,0.1-0.2,0.2-0.4,0.2&#10;&#9;&#9;&#9;&#9;c-0.1,0.1-0.3,0.2-0.4,0.3c-0.1,0.1-0.2,0.2-0.3,0.3c-0.1,0.1-0.2,0.2-0.4,0.3c-0.1,0.1-0.2,0.2-0.3,0.3&#10;&#9;&#9;&#9;&#9;c-0.1,0.1-0.2,0.2-0.3,0.3c0,0-0.1,0.1-0.1,0.1c0,0-0.1,0.1-0.1,0.1c-0.2,0.2-0.4,0.3-0.5,0.5c-0.1,0.1-0.1,0.1-0.2,0.2&#10;&#9;&#9;&#9;&#9;c-0.2,0.2-0.4,0.5-0.6,0.7c0,0,0,0,0,0c0,0.1-0.1,0.1-0.1,0.2c-0.1,0.1-0.2,0.3-0.3,0.4c-0.1,0.1-0.1,0.2-0.2,0.2&#10;&#9;&#9;&#9;&#9;c-0.1,0.1-0.2,0.3-0.3,0.4c0,0,0,0.1-0.1,0.1c0,0.1-0.1,0.1-0.1,0.2c-0.1,0.1-0.1,0.2-0.2,0.3c0,0.1-0.1,0.2-0.1,0.3&#10;&#9;&#9;&#9;&#9;c-0.1,0.1-0.1,0.2-0.1,0.3c0,0.1,0,0.1-0.1,0.2c0,0,0,0.1,0,0.1c0,0.1-0.1,0.2-0.1,0.3c0,0.1-0.1,0.2-0.1,0.3&#10;&#9;&#9;&#9;&#9;c0,0.1-0.1,0.2-0.1,0.3c0,0.1,0,0.1,0,0.2c0,0,0,0.1,0,0.1c0,0.1,0,0.2-0.1,0.3c0,0.1,0,0.2,0,0.3c0,0.1,0,0.2,0,0.3&#10;&#9;&#9;&#9;&#9;c0,0.1,0,0.1,0,0.2c0,0.1,0,0.1,0,0.2L713,1098c0-0.1,0-0.3,0-0.4C713,1097.5,713,1097.4,713,1097.3z"/>
			<path fill="#C5D2D3" d="M800.6,1081.3l-11.3,0c-0.2,0.4-0.3,0.8-0.5,1.2c0,0.1-0.1,0.1-0.1,0.2c-0.2,0.4-0.4,0.8-0.6,1.1&#10;&#9;&#9;&#9;&#9;c0,0.1-0.1,0.1-0.1,0.2c-0.2,0.4-0.4,0.8-0.7,1.2c0,0,0,0,0,0c-0.2,0.4-0.5,0.7-0.7,1.1c-0.1,0.1-0.1,0.2-0.2,0.2&#10;&#9;&#9;&#9;&#9;c-0.3,0.4-0.5,0.7-0.8,1.1c-0.1,0.1-0.1,0.2-0.2,0.2c-0.2,0.3-0.5,0.6-0.7,0.9c-0.1,0.1-0.2,0.2-0.3,0.3&#10;&#9;&#9;&#9;&#9;c-0.3,0.3-0.5,0.6-0.8,0.9c-0.1,0.1-0.1,0.2-0.2,0.2c-0.4,0.4-0.8,0.8-1.2,1.1l0,9.3l-8.6,5l-8-4.6c-0.9,0.3-1.7,0.6-2.6,0.9&#10;&#9;&#9;&#9;&#9;c-0.3,0.1-0.6,0.2-0.8,0.3c-0.5,0.1-0.9,0.3-1.4,0.4c-0.3,0.1-0.6,0.2-0.9,0.3c-0.5,0.1-1,0.3-1.5,0.4c-0.3,0.1-0.6,0.2-0.9,0.2&#10;&#9;&#9;&#9;&#9;c-0.6,0.1-1.1,0.3-1.7,0.4c-0.2,0-0.4,0.1-0.7,0.2c-0.8,0.2-1.6,0.3-2.4,0.5c-0.5,0.1-1,0.2-1.5,0.2c-0.2,0-0.5,0.1-0.7,0.1&#10;&#9;&#9;&#9;&#9;c-0.7,0.1-1.5,0.2-2.3,0.3l0,6.5l-23.5,0l0-6.5c-0.6-0.1-1.1-0.2-1.7-0.2c-0.5-0.1-1.1-0.2-1.6-0.3c-0.3,0-0.6-0.1-0.9-0.1&#10;&#9;&#9;&#9;&#9;c-0.6-0.1-1.3-0.2-1.9-0.4c-0.2,0-0.4-0.1-0.6-0.1c-0.9-0.2-1.7-0.4-2.6-0.6c-0.2-0.1-0.5-0.1-0.7-0.2c-0.6-0.2-1.3-0.3-1.9-0.5&#10;&#9;&#9;&#9;&#9;c-0.3-0.1-0.6-0.2-0.8-0.2c-0.6-0.2-1.1-0.3-1.7-0.5c-0.2-0.1-0.5-0.2-0.7-0.2c-0.8-0.3-1.6-0.5-2.4-0.8l-7.9,4.6l-8.8-5.1l0-9.2&#10;&#9;&#9;&#9;&#9;c-2.6-2.4-4.6-4.9-6.1-7.5c-0.5-0.9-0.9-1.7-1.2-2.6h0l0,0l0,0l-11.3,0l-0.1-13.7l-0.1,23.6l0.1,13.7l10.7,0l0,14.7l16.7,9.7&#10;&#9;&#9;&#9;&#9;l7.9-4.6c0.8,0.3,1.6,0.6,2.4,0.8c0.2,0.1,0.5,0.2,0.8,0.2c0.6,0.2,1.1,0.3,1.7,0.5c0.1,0,0.3,0.1,0.4,0.1c0.1,0,0.3,0.1,0.4,0.1&#10;&#9;&#9;&#9;&#9;c0.6,0.2,1.3,0.3,1.9,0.5c0.2,0.1,0.5,0.1,0.7,0.2c0.9,0.2,1.7,0.4,2.6,0.6c0,0,0.1,0,0.1,0c0.2,0,0.3,0.1,0.5,0.1&#10;&#9;&#9;&#9;&#9;c0.6,0.1,1.3,0.2,1.9,0.4c0.3,0.1,0.6,0.1,0.9,0.1c0.5,0.1,1.1,0.2,1.6,0.3c0.1,0,0.3,0,0.4,0.1c0.4,0.1,0.8,0.1,1.2,0.2l0,6.5&#10;&#9;&#9;&#9;&#9;l23.6,0l0-6.5c0.7-0.1,1.5-0.2,2.2-0.3c0.2,0,0.5-0.1,0.7-0.1c0.5-0.1,1-0.2,1.4-0.2c0,0,0,0,0.1,0c0.8-0.1,1.6-0.3,2.4-0.5&#10;&#9;&#9;&#9;&#9;c0.2,0,0.4-0.1,0.7-0.2c0.6-0.1,1.2-0.3,1.7-0.4c0.3-0.1,0.6-0.1,0.9-0.2c0.5-0.1,1-0.3,1.5-0.4c0.3-0.1,0.6-0.2,0.9-0.3&#10;&#9;&#9;&#9;&#9;c0.5-0.1,1-0.3,1.4-0.4c0.2-0.1,0.3-0.1,0.5-0.2c0.1,0,0.2-0.1,0.3-0.1c0.9-0.3,1.8-0.6,2.6-0.9l8,4.6l16.6-9.7l0-14.7l10.4,0&#10;&#9;&#9;&#9;&#9;L800.6,1081.3z"/>
		</g>
		<path fill="#FFFFFF" d="M789.3,1081.3l11.3,0l-0.1-13.7l-11.3,0c-1.4-3.5-3.8-7-7.3-10.1l7.9-4.6l-16.7-9.7l-7.9,4.6&#10;&#9;&#9;&#9;c-5.5-2-11.4-3.4-17.5-4.2l0-6.5l-23.6,0l0,6.5c-6.1,0.8-12,2.2-17.5,4.2l-8-4.6l-16.6,9.7l8,4.6c-3.5,3.2-5.9,6.6-7.2,10.1&#10;&#9;&#9;&#9;l-11.3,0l0.1,13.7l11.3,0c1.4,3.5,3.8,7,7.3,10.1l-7.9,4.6l16.7,9.7l7.9-4.6c5.5,2,11.4,3.4,17.5,4.2l0,6.5l23.6,0l0-6.5&#10;&#9;&#9;&#9;c6.1-0.8,12-2.2,17.5-4.2l8,4.6l16.6-9.7l-8-4.6C785.6,1088.3,788,1084.9,789.3,1081.3z M752.4,1083.9c-9,5.2-23.5,5.2-32.6,0&#10;&#9;&#9;&#9;c-9-5.2-9.1-13.7-0.1-18.9c9-5.2,23.6-5.2,32.6,0C761.4,1070.3,761.4,1078.7,752.4,1083.9z"/>
	</g>
	<g>
		<g>
			<path d="M 891.9000244140625 1113.4000244140625 L 885.7000122070312 1116.9000244140625 L 885.7000122070312 1135.199951171875 L 891.7999877929688 1131.5999755859375 Z" fill="#C5D2D3"/>
			<path d="M 814.7999877929688 1116.9000244140625 L 808.5999755859375 1113.4000244140625 L 808.5999755859375 1131.5999755859375 L 814.7999877929688 1135.199951171875 Z" fill="#C5D2D3"/>
			<path fill="#C5D2D3" d="M832.6,1147.6c0-0.1,0-0.2,0-0.2c0-0.1,0-0.2,0-0.3c0-0.1,0-0.2,0-0.2c0-0.1,0-0.2,0.1-0.3&#10;&#9;&#9;&#9;&#9;c0-0.1,0-0.2,0.1-0.2c0-0.1,0.1-0.2,0.1-0.3c0-0.1,0.1-0.2,0.1-0.2c0-0.1,0.1-0.2,0.1-0.3c0-0.1,0.1-0.2,0.1-0.2&#10;&#9;&#9;&#9;&#9;c0-0.1,0.1-0.2,0.1-0.3c0-0.1,0.1-0.1,0.1-0.2c0.1-0.1,0.1-0.2,0.2-0.3c0-0.1,0.1-0.1,0.1-0.2c0.1-0.1,0.2-0.2,0.3-0.3&#10;&#9;&#9;&#9;&#9;c0,0,0.1-0.1,0.1-0.1c0.1-0.2,0.3-0.4,0.5-0.5c0,0,0.1-0.1,0.1-0.1c0.1-0.1,0.3-0.3,0.4-0.4c0.1-0.1,0.1-0.1,0.2-0.2&#10;&#9;&#9;&#9;&#9;c0.1-0.1,0.2-0.1,0.3-0.2c0.1-0.1,0.2-0.1,0.2-0.2c0.1-0.1,0.2-0.1,0.3-0.2c0.1-0.1,0.2-0.1,0.3-0.2c0.1-0.1,0.2-0.1,0.3-0.2&#10;&#9;&#9;&#9;&#9;c0.1-0.1,0.2-0.1,0.3-0.2c0.1-0.1,0.2-0.1,0.3-0.2c0.1-0.1,0.3-0.2,0.4-0.3c0.3-0.2,0.5-0.3,0.8-0.4c0.1,0,0.2-0.1,0.2-0.1&#10;&#9;&#9;&#9;&#9;c0.2-0.1,0.4-0.2,0.7-0.3c0.1,0,0.1-0.1,0.2-0.1c0.3-0.1,0.6-0.2,0.9-0.4c0.1,0,0.1,0,0.2-0.1c0.3-0.1,0.5-0.2,0.8-0.3&#10;&#9;&#9;&#9;&#9;c0.1,0,0.2-0.1,0.3-0.1c0.1,0,0.3-0.1,0.4-0.1c0.1,0,0.2-0.1,0.4-0.1c0.1,0,0.3-0.1,0.4-0.1c0.1,0,0.2-0.1,0.4-0.1&#10;&#9;&#9;&#9;&#9;c0.2,0,0.3-0.1,0.5-0.1c0.1,0,0.3-0.1,0.4-0.1c0.2,0,0.3-0.1,0.5-0.1c0.1,0,0.2,0,0.4-0.1c0.3-0.1,0.7-0.1,1-0.2c0,0,0.1,0,0.1,0&#10;&#9;&#9;&#9;&#9;c0.3,0,0.6-0.1,0.9-0.1c0.1,0,0.2,0,0.3,0c0.2,0,0.4,0,0.6,0c0.1,0,0.2,0,0.4,0c0.2,0,0.4,0,0.6,0c0.1,0,0.2,0,0.3,0&#10;&#9;&#9;&#9;&#9;c0.2,0,0.3,0,0.5,0c0.1,0,0.2,0,0.4,0c0.2,0,0.4,0,0.6,0c0.1,0,0.2,0,0.3,0c0.6,0,1.1,0,1.7,0.1c0,0,0,0,0,0&#10;&#9;&#9;&#9;&#9;c0.6,0,1.1,0.1,1.7,0.2c0,0,0.1,0,0.1,0c0.2,0,0.5,0.1,0.7,0.1c0.1,0,0.2,0,0.3,0.1c0.2,0,0.4,0.1,0.5,0.1c0.1,0,0.2,0,0.3,0.1&#10;&#9;&#9;&#9;&#9;c0.2,0,0.4,0.1,0.6,0.1c0.1,0,0.2,0.1,0.3,0.1c0.2,0,0.4,0.1,0.5,0.1c0.1,0,0.2,0.1,0.3,0.1c0.3,0.1,0.6,0.2,0.8,0.3&#10;&#9;&#9;&#9;&#9;c0,0,0.1,0,0.1,0c0.3,0.1,0.6,0.2,0.9,0.3c0.1,0,0.1,0.1,0.2,0.1c0.4,0.2,0.8,0.3,1.2,0.5c0,0,0.1,0,0.1,0.1&#10;&#9;&#9;&#9;&#9;c0.4,0.2,0.8,0.4,1.2,0.6c3.5,2,5.3,4.7,5.2,7.3l0.1-18.2c0-2.7-1.7-5.3-5.2-7.3c-0.4-0.2-0.8-0.4-1.2-0.6c0,0-0.1,0-0.1-0.1&#10;&#9;&#9;&#9;&#9;c-0.4-0.2-0.8-0.4-1.2-0.5c0,0-0.1,0-0.1,0c0,0-0.1,0-0.1,0c-0.3-0.1-0.6-0.2-0.9-0.3c0,0-0.1,0-0.1,0c-0.3-0.1-0.6-0.2-0.8-0.3&#10;&#9;&#9;&#9;&#9;c0,0-0.1,0-0.1,0c-0.1,0-0.1,0-0.2,0c-0.2,0-0.4-0.1-0.5-0.1c-0.1,0-0.2-0.1-0.3-0.1c-0.2,0-0.4-0.1-0.6-0.1&#10;&#9;&#9;&#9;&#9;c-0.1,0-0.1,0-0.2-0.1c0,0,0,0-0.1,0c-0.2,0-0.4-0.1-0.5-0.1c-0.1,0-0.2,0-0.3-0.1c-0.2,0-0.5-0.1-0.7-0.1c0,0-0.1,0-0.1,0&#10;&#9;&#9;&#9;&#9;c0,0,0,0,0,0c-0.6-0.1-1.1-0.1-1.7-0.2c0,0,0,0,0,0c0,0,0,0,0,0c-0.6,0-1.1-0.1-1.7-0.1c0,0,0,0,0,0c-0.1,0-0.2,0-0.3,0&#10;&#9;&#9;&#9;&#9;c-0.2,0-0.4,0-0.6,0c-0.1,0-0.2,0-0.4,0c-0.2,0-0.3,0-0.5,0c0,0-0.1,0-0.1,0c-0.1,0-0.2,0-0.2,0c-0.2,0-0.4,0-0.6,0&#10;&#9;&#9;&#9;&#9;c-0.1,0-0.2,0-0.4,0c-0.2,0-0.4,0-0.6,0c-0.1,0-0.1,0-0.2,0c0,0-0.1,0-0.1,0c-0.3,0-0.6,0.1-0.9,0.1c0,0-0.1,0-0.1,0&#10;&#9;&#9;&#9;&#9;c-0.3,0-0.7,0.1-1,0.2c0,0-0.1,0-0.1,0c-0.1,0-0.2,0-0.3,0.1c-0.2,0-0.3,0.1-0.5,0.1c-0.1,0-0.3,0.1-0.4,0.1&#10;&#9;&#9;&#9;&#9;c-0.2,0-0.3,0.1-0.5,0.1c-0.1,0-0.2,0.1-0.4,0.1c-0.1,0-0.3,0.1-0.4,0.1c-0.1,0-0.2,0.1-0.4,0.1c-0.1,0-0.3,0.1-0.4,0.1&#10;&#9;&#9;&#9;&#9;c-0.1,0-0.1,0-0.2,0.1c0,0-0.1,0-0.1,0c-0.1,0-0.3,0.1-0.4,0.1l0-15l0-5l-0.1,18.2l0,1.8c-0.1,0-0.2,0.1-0.3,0.1&#10;&#9;&#9;&#9;&#9;c-0.1,0-0.1,0-0.2,0.1c-0.3,0.1-0.6,0.2-0.9,0.4c-0.1,0-0.1,0.1-0.2,0.1c-0.2,0.1-0.4,0.2-0.7,0.3c-0.1,0-0.2,0.1-0.2,0.1&#10;&#9;&#9;&#9;&#9;c-0.3,0.1-0.6,0.3-0.8,0.4c-0.1,0-0.1,0.1-0.2,0.1c-0.1,0-0.1,0.1-0.2,0.1c-0.1,0.1-0.2,0.1-0.3,0.2c-0.1,0.1-0.2,0.1-0.3,0.2&#10;&#9;&#9;&#9;&#9;c-0.1,0.1-0.2,0.1-0.3,0.2c-0.1,0.1-0.2,0.1-0.3,0.2c-0.1,0.1-0.2,0.1-0.3,0.2c-0.1,0.1-0.2,0.1-0.2,0.2&#10;&#9;&#9;&#9;&#9;c-0.1,0.1-0.2,0.1-0.3,0.2c0,0-0.1,0.1-0.1,0.1c0,0-0.1,0.1-0.1,0.1c-0.1,0.1-0.3,0.3-0.4,0.4c0,0-0.1,0.1-0.1,0.1&#10;&#9;&#9;&#9;&#9;c-0.2,0.2-0.3,0.4-0.5,0.5c0,0,0,0,0,0c0,0-0.1,0.1-0.1,0.1c-0.1,0.1-0.2,0.2-0.3,0.3c0,0.1-0.1,0.1-0.1,0.2&#10;&#9;&#9;&#9;&#9;c-0.1,0.1-0.1,0.2-0.2,0.3c0,0,0,0.1-0.1,0.1c0,0,0,0.1-0.1,0.1c0,0.1-0.1,0.2-0.1,0.3c0,0.1-0.1,0.1-0.1,0.2&#10;&#9;&#9;&#9;&#9;c0,0.1-0.1,0.2-0.1,0.3c0,0,0,0.1-0.1,0.1c0,0,0,0.1,0,0.1c0,0.1-0.1,0.2-0.1,0.3c0,0.1,0,0.2-0.1,0.2c0,0.1,0,0.2-0.1,0.3&#10;&#9;&#9;&#9;&#9;c0,0,0,0.1,0,0.1c0,0,0,0.1,0,0.1c0,0.1,0,0.2,0,0.3c0,0.1,0,0.2,0,0.2c0,0.1,0,0.2,0,0.3c0,0.1,0,0.1,0,0.2c0,0.1,0,0.1,0,0.2&#10;&#9;&#9;&#9;&#9;l-0.1,18.2c0-0.1,0-0.2,0-0.3C832.5,1147.8,832.5,1147.7,832.6,1147.6z"/>
			<path fill="#C5D2D3" d="M900.1,1135.3l-8.7,0c-0.1,0.3-0.2,0.6-0.4,0.9c0,0.1,0,0.1-0.1,0.2c-0.1,0.3-0.3,0.6-0.4,0.9&#10;&#9;&#9;&#9;&#9;c0,0.1-0.1,0.1-0.1,0.2c-0.2,0.3-0.3,0.6-0.5,0.9c0,0,0,0,0,0c-0.2,0.3-0.4,0.6-0.6,0.9c0,0.1-0.1,0.1-0.1,0.2&#10;&#9;&#9;&#9;&#9;c-0.2,0.3-0.4,0.6-0.6,0.8c-0.1,0.1-0.1,0.1-0.2,0.2c-0.2,0.2-0.4,0.5-0.6,0.7c-0.1,0.1-0.2,0.2-0.2,0.3&#10;&#9;&#9;&#9;&#9;c-0.2,0.2-0.4,0.5-0.6,0.7c-0.1,0.1-0.1,0.1-0.2,0.2c-0.3,0.3-0.6,0.6-0.9,0.9l0,7.2l-6.6,3.9l-6.2-3.6c-0.7,0.2-1.3,0.5-2,0.7&#10;&#9;&#9;&#9;&#9;c-0.2,0.1-0.4,0.1-0.6,0.2c-0.4,0.1-0.7,0.2-1.1,0.3c-0.2,0.1-0.5,0.1-0.7,0.2c-0.4,0.1-0.8,0.2-1.2,0.3&#10;&#9;&#9;&#9;&#9;c-0.2,0.1-0.4,0.1-0.7,0.2c-0.4,0.1-0.9,0.2-1.3,0.3c-0.2,0-0.3,0.1-0.5,0.1c-0.6,0.1-1.2,0.3-1.9,0.4c-0.4,0.1-0.8,0.1-1.1,0.2&#10;&#9;&#9;&#9;&#9;c-0.2,0-0.4,0.1-0.6,0.1c-0.6,0.1-1.2,0.2-1.7,0.2l0,5l-18.2,0l0-5c-0.4-0.1-0.9-0.1-1.3-0.2c-0.4-0.1-0.8-0.1-1.3-0.2&#10;&#9;&#9;&#9;&#9;c-0.2,0-0.5-0.1-0.7-0.1c-0.5-0.1-1-0.2-1.5-0.3c-0.1,0-0.3-0.1-0.4-0.1c-0.7-0.1-1.3-0.3-2-0.5c-0.2,0-0.4-0.1-0.5-0.1&#10;&#9;&#9;&#9;&#9;c-0.5-0.1-1-0.3-1.5-0.4c-0.2-0.1-0.4-0.1-0.6-0.2c-0.4-0.1-0.9-0.3-1.3-0.4c-0.2-0.1-0.4-0.1-0.6-0.2c-0.6-0.2-1.2-0.4-1.8-0.6&#10;&#9;&#9;&#9;&#9;l-6.1,3.6l-6.8-3.9l0-7.1c-2-1.8-3.6-3.8-4.7-5.8c-0.4-0.7-0.7-1.3-0.9-2h0l0,0l0,0l-8.7,0l-0.1-10.5l-0.1,18.2l0.1,10.5l8.2,0&#10;&#9;&#9;&#9;&#9;l0,11.4l12.9,7.5l6.1-3.6c0.6,0.2,1.2,0.4,1.8,0.6c0.2,0.1,0.4,0.1,0.6,0.2c0.4,0.1,0.9,0.3,1.3,0.4c0.1,0,0.2,0.1,0.3,0.1&#10;&#9;&#9;&#9;&#9;c0.1,0,0.2,0.1,0.3,0.1c0.5,0.1,1,0.3,1.5,0.4c0.2,0,0.4,0.1,0.5,0.1c0.7,0.2,1.3,0.3,2,0.5c0,0,0,0,0.1,0c0.1,0,0.3,0,0.4,0.1&#10;&#9;&#9;&#9;&#9;c0.5,0.1,1,0.2,1.5,0.3c0.2,0,0.5,0.1,0.7,0.1c0.4,0.1,0.8,0.1,1.3,0.2c0.1,0,0.2,0,0.3,0.1c0.3,0,0.6,0.1,1,0.1l0,5l18.2,0l0-5&#10;&#9;&#9;&#9;&#9;c0.6-0.1,1.1-0.2,1.7-0.2c0.2,0,0.4-0.1,0.6-0.1c0.4-0.1,0.7-0.1,1.1-0.2c0,0,0,0,0,0c0.6-0.1,1.3-0.2,1.9-0.4&#10;&#9;&#9;&#9;&#9;c0.2,0,0.3-0.1,0.5-0.1c0.4-0.1,0.9-0.2,1.3-0.3c0.2-0.1,0.4-0.1,0.7-0.2c0.4-0.1,0.8-0.2,1.2-0.3c0.2-0.1,0.5-0.1,0.7-0.2&#10;&#9;&#9;&#9;&#9;c0.4-0.1,0.7-0.2,1.1-0.3c0.1,0,0.3-0.1,0.4-0.1c0.1,0,0.2-0.1,0.2-0.1c0.7-0.2,1.4-0.5,2-0.7l6.2,3.6l12.8-7.5l0-11.4l8,0&#10;&#9;&#9;&#9;&#9;L900.1,1135.3z"/>
		</g>
		<path fill="#FFFFFF" d="M891.4,1135.3l8.7,0l-0.1-10.5l-8.7,0c-1.1-2.7-2.9-5.4-5.6-7.8l6.1-3.6l-12.9-7.5l-6.1,3.6&#10;&#9;&#9;&#9;c-4.2-1.6-8.8-2.6-13.5-3.2l0-5l-18.2,0l0,5c-4.7,0.6-9.3,1.7-13.5,3.2l-6.2-3.6l-12.8,7.5l6.2,3.6c-2.7,2.4-4.5,5.1-5.5,7.8&#10;&#9;&#9;&#9;l-8.7,0l0.1,10.5l8.7,0c1.1,2.7,2.9,5.4,5.6,7.8l-6.1,3.6l12.9,7.5l6.1-3.6c4.2,1.6,8.8,2.6,13.5,3.2l0,5l18.2,0l0-5&#10;&#9;&#9;&#9;c4.7-0.6,9.3-1.7,13.5-3.2l6.2,3.6l12.8-7.5l-6.2-3.6C888.5,1140.7,890.4,1138,891.4,1135.3z M863,1137.3c-6.9,4-18.2,4-25.1,0&#10;&#9;&#9;&#9;c-7-4-7-10.5-0.1-14.6c6.9-4,18.2-4,25.1,0C869.8,1126.8,869.9,1133.3,863,1137.3z"/>
	</g>
	<g>
		<g>
			<path d="M 796.7999877929688 1153.0999755859375 L 790.7000122070312 1156.699951171875 L 790.5999755859375 1174.9000244140625 L 796.7000122070312 1171.4000244140625 Z" fill="#C5D2D3"/>
			<path d="M 719.7999877929688 1156.699951171875 L 713.5999755859375 1153.0999755859375 L 713.5 1171.4000244140625 L 719.7000122070312 1174.9000244140625 Z" fill="#C5D2D3"/>
			<path fill="#C5D2D3" d="M737.5,1187.4c0-0.1,0-0.2,0-0.2c0-0.1,0-0.2,0-0.3c0-0.1,0-0.2,0-0.2c0-0.1,0-0.2,0.1-0.3&#10;&#9;&#9;&#9;&#9;c0-0.1,0-0.2,0.1-0.2c0-0.1,0.1-0.2,0.1-0.3c0-0.1,0.1-0.2,0.1-0.2c0-0.1,0.1-0.2,0.1-0.3c0-0.1,0.1-0.2,0.1-0.2&#10;&#9;&#9;&#9;&#9;c0-0.1,0.1-0.2,0.1-0.3c0-0.1,0.1-0.1,0.1-0.2c0.1-0.1,0.1-0.2,0.2-0.3c0-0.1,0.1-0.1,0.1-0.2c0.1-0.1,0.2-0.2,0.3-0.3&#10;&#9;&#9;&#9;&#9;c0,0,0.1-0.1,0.1-0.1c0.1-0.2,0.3-0.4,0.5-0.5c0,0,0.1-0.1,0.1-0.1c0.1-0.1,0.3-0.3,0.4-0.4c0.1-0.1,0.1-0.1,0.2-0.2&#10;&#9;&#9;&#9;&#9;c0.1-0.1,0.2-0.1,0.3-0.2c0.1-0.1,0.2-0.1,0.2-0.2c0.1-0.1,0.2-0.1,0.3-0.2c0.1-0.1,0.2-0.1,0.3-0.2c0.1-0.1,0.2-0.1,0.3-0.2&#10;&#9;&#9;&#9;&#9;c0.1-0.1,0.2-0.1,0.3-0.2c0.1-0.1,0.2-0.1,0.3-0.2c0.1-0.1,0.3-0.2,0.4-0.3c0.3-0.2,0.5-0.3,0.8-0.4c0.1,0,0.2-0.1,0.2-0.1&#10;&#9;&#9;&#9;&#9;c0.2-0.1,0.4-0.2,0.7-0.3c0.1,0,0.1-0.1,0.2-0.1c0.3-0.1,0.6-0.2,0.9-0.4c0.1,0,0.1,0,0.2-0.1c0.3-0.1,0.5-0.2,0.8-0.3&#10;&#9;&#9;&#9;&#9;c0.1,0,0.2-0.1,0.3-0.1c0.1,0,0.3-0.1,0.4-0.1c0.1,0,0.2-0.1,0.4-0.1c0.1,0,0.3-0.1,0.4-0.1c0.1,0,0.2-0.1,0.4-0.1&#10;&#9;&#9;&#9;&#9;c0.2,0,0.3-0.1,0.5-0.1c0.1,0,0.3-0.1,0.4-0.1c0.2,0,0.3-0.1,0.5-0.1c0.1,0,0.2,0,0.4-0.1c0.3-0.1,0.7-0.1,1-0.2c0,0,0.1,0,0.1,0&#10;&#9;&#9;&#9;&#9;c0.3,0,0.6-0.1,0.9-0.1c0.1,0,0.2,0,0.3,0c0.2,0,0.4,0,0.6,0c0.1,0,0.2,0,0.4,0c0.2,0,0.4,0,0.6,0c0.1,0,0.2,0,0.3,0&#10;&#9;&#9;&#9;&#9;c0.2,0,0.3,0,0.5,0c0.1,0,0.2,0,0.4,0c0.2,0,0.4,0,0.6,0c0.1,0,0.2,0,0.3,0c0.6,0,1.1,0,1.7,0.1c0,0,0,0,0,0&#10;&#9;&#9;&#9;&#9;c0.6,0,1.1,0.1,1.7,0.2c0,0,0.1,0,0.1,0c0.2,0,0.5,0.1,0.7,0.1c0.1,0,0.2,0,0.3,0.1c0.2,0,0.4,0.1,0.5,0.1c0.1,0,0.2,0,0.3,0.1&#10;&#9;&#9;&#9;&#9;c0.2,0,0.4,0.1,0.6,0.1c0.1,0,0.2,0.1,0.3,0.1c0.2,0,0.4,0.1,0.5,0.1c0.1,0,0.2,0.1,0.3,0.1c0.3,0.1,0.6,0.2,0.8,0.3&#10;&#9;&#9;&#9;&#9;c0,0,0.1,0,0.1,0c0.3,0.1,0.6,0.2,0.9,0.3c0.1,0,0.1,0.1,0.2,0.1c0.4,0.2,0.8,0.3,1.2,0.5c0,0,0.1,0,0.1,0.1&#10;&#9;&#9;&#9;&#9;c0.4,0.2,0.8,0.4,1.2,0.6c3.5,2,5.3,4.7,5.2,7.3l0.1-18.2c0-2.7-1.7-5.3-5.2-7.3c-0.4-0.2-0.8-0.4-1.2-0.6c0,0-0.1,0-0.1-0.1&#10;&#9;&#9;&#9;&#9;c-0.4-0.2-0.8-0.4-1.2-0.5c0,0-0.1,0-0.1,0c0,0-0.1,0-0.1,0c-0.3-0.1-0.6-0.2-0.9-0.3c0,0-0.1,0-0.1,0c-0.3-0.1-0.6-0.2-0.8-0.3&#10;&#9;&#9;&#9;&#9;c0,0-0.1,0-0.1,0c-0.1,0-0.1,0-0.2,0c-0.2,0-0.4-0.1-0.5-0.1c-0.1,0-0.2-0.1-0.3-0.1c-0.2,0-0.4-0.1-0.6-0.1&#10;&#9;&#9;&#9;&#9;c-0.1,0-0.1,0-0.2-0.1c0,0,0,0-0.1,0c-0.2,0-0.4-0.1-0.5-0.1c-0.1,0-0.2,0-0.3-0.1c-0.2,0-0.5-0.1-0.7-0.1c0,0-0.1,0-0.1,0&#10;&#9;&#9;&#9;&#9;c0,0,0,0,0,0c-0.6-0.1-1.1-0.1-1.7-0.2c0,0,0,0,0,0c0,0,0,0,0,0c-0.6,0-1.1-0.1-1.7-0.1c0,0,0,0,0,0c-0.1,0-0.2,0-0.3,0&#10;&#9;&#9;&#9;&#9;c-0.2,0-0.4,0-0.6,0c-0.1,0-0.2,0-0.4,0c-0.2,0-0.3,0-0.5,0c0,0-0.1,0-0.1,0c-0.1,0-0.2,0-0.2,0c-0.2,0-0.4,0-0.6,0&#10;&#9;&#9;&#9;&#9;c-0.1,0-0.2,0-0.4,0c-0.2,0-0.4,0-0.6,0c-0.1,0-0.1,0-0.2,0c0,0-0.1,0-0.1,0c-0.3,0-0.6,0.1-0.9,0.1c0,0-0.1,0-0.1,0&#10;&#9;&#9;&#9;&#9;c-0.3,0-0.7,0.1-1,0.2c0,0-0.1,0-0.1,0c-0.1,0-0.2,0-0.3,0.1c-0.2,0-0.3,0.1-0.5,0.1c-0.1,0-0.3,0.1-0.4,0.1&#10;&#9;&#9;&#9;&#9;c-0.2,0-0.3,0.1-0.5,0.1c-0.1,0-0.2,0.1-0.4,0.1c-0.1,0-0.3,0.1-0.4,0.1c-0.1,0-0.2,0.1-0.4,0.1c-0.1,0-0.3,0.1-0.4,0.1&#10;&#9;&#9;&#9;&#9;c-0.1,0-0.1,0-0.2,0.1c0,0-0.1,0-0.1,0c-0.1,0-0.3,0.1-0.4,0.1l0-15l0-5l-0.1,18.2l0,1.8c-0.1,0-0.2,0.1-0.3,0.1&#10;&#9;&#9;&#9;&#9;c-0.1,0-0.1,0-0.2,0.1c-0.3,0.1-0.6,0.2-0.9,0.4c-0.1,0-0.1,0.1-0.2,0.1c-0.2,0.1-0.4,0.2-0.7,0.3c-0.1,0-0.2,0.1-0.2,0.1&#10;&#9;&#9;&#9;&#9;c-0.3,0.1-0.6,0.3-0.8,0.4c-0.1,0-0.1,0.1-0.2,0.1c-0.1,0-0.1,0.1-0.2,0.1c-0.1,0.1-0.2,0.1-0.3,0.2c-0.1,0.1-0.2,0.1-0.3,0.2&#10;&#9;&#9;&#9;&#9;c-0.1,0.1-0.2,0.1-0.3,0.2c-0.1,0.1-0.2,0.1-0.3,0.2c-0.1,0.1-0.2,0.1-0.3,0.2c-0.1,0.1-0.2,0.1-0.2,0.2&#10;&#9;&#9;&#9;&#9;c-0.1,0.1-0.2,0.1-0.3,0.2c0,0-0.1,0.1-0.1,0.1c0,0-0.1,0.1-0.1,0.1c-0.1,0.1-0.3,0.3-0.4,0.4c0,0-0.1,0.1-0.1,0.1&#10;&#9;&#9;&#9;&#9;c-0.2,0.2-0.3,0.4-0.5,0.5c0,0,0,0,0,0c0,0-0.1,0.1-0.1,0.1c-0.1,0.1-0.2,0.2-0.3,0.3c0,0.1-0.1,0.1-0.1,0.2&#10;&#9;&#9;&#9;&#9;c-0.1,0.1-0.1,0.2-0.2,0.3c0,0,0,0.1-0.1,0.1c0,0,0,0.1-0.1,0.1c0,0.1-0.1,0.2-0.1,0.3c0,0.1-0.1,0.1-0.1,0.2&#10;&#9;&#9;&#9;&#9;c0,0.1-0.1,0.2-0.1,0.3c0,0,0,0.1-0.1,0.1c0,0,0,0.1,0,0.1c0,0.1-0.1,0.2-0.1,0.3c0,0.1,0,0.2-0.1,0.2c0,0.1,0,0.2-0.1,0.3&#10;&#9;&#9;&#9;&#9;c0,0,0,0.1,0,0.1c0,0,0,0.1,0,0.1c0,0.1,0,0.2,0,0.3c0,0.1,0,0.2,0,0.2c0,0.1,0,0.2,0,0.3c0,0.1,0,0.1,0,0.2c0,0.1,0,0.1,0,0.2&#10;&#9;&#9;&#9;&#9;l-0.1,18.2c0-0.1,0-0.2,0-0.3C737.5,1187.6,737.5,1187.5,737.5,1187.4z"/>
			<path fill="#C5D2D3" d="M805.1,1175.1l-8.7,0c-0.1,0.3-0.2,0.6-0.4,0.9c0,0.1,0,0.1-0.1,0.2c-0.1,0.3-0.3,0.6-0.4,0.9&#10;&#9;&#9;&#9;&#9;c0,0.1-0.1,0.1-0.1,0.2c-0.2,0.3-0.3,0.6-0.5,0.9c0,0,0,0,0,0c-0.2,0.3-0.4,0.6-0.6,0.9c0,0.1-0.1,0.1-0.1,0.2&#10;&#9;&#9;&#9;&#9;c-0.2,0.3-0.4,0.6-0.6,0.8c-0.1,0.1-0.1,0.1-0.2,0.2c-0.2,0.2-0.4,0.5-0.6,0.7c-0.1,0.1-0.2,0.2-0.2,0.3&#10;&#9;&#9;&#9;&#9;c-0.2,0.2-0.4,0.5-0.6,0.7c-0.1,0.1-0.1,0.1-0.2,0.2c-0.3,0.3-0.6,0.6-0.9,0.9l0,7.2l-6.6,3.9l-6.2-3.6c-0.7,0.2-1.3,0.5-2,0.7&#10;&#9;&#9;&#9;&#9;c-0.2,0.1-0.4,0.1-0.6,0.2c-0.4,0.1-0.7,0.2-1.1,0.3c-0.2,0.1-0.5,0.1-0.7,0.2c-0.4,0.1-0.8,0.2-1.2,0.3&#10;&#9;&#9;&#9;&#9;c-0.2,0.1-0.4,0.1-0.7,0.2c-0.4,0.1-0.9,0.2-1.3,0.3c-0.2,0-0.3,0.1-0.5,0.1c-0.6,0.1-1.2,0.3-1.9,0.4c-0.4,0.1-0.8,0.1-1.1,0.2&#10;&#9;&#9;&#9;&#9;c-0.2,0-0.4,0.1-0.6,0.1c-0.6,0.1-1.2,0.2-1.7,0.2l0,5l-18.2,0l0-5c-0.4-0.1-0.9-0.1-1.3-0.2c-0.4-0.1-0.8-0.1-1.3-0.2&#10;&#9;&#9;&#9;&#9;c-0.2,0-0.5-0.1-0.7-0.1c-0.5-0.1-1-0.2-1.5-0.3c-0.1,0-0.3-0.1-0.4-0.1c-0.7-0.1-1.3-0.3-2-0.5c-0.2,0-0.4-0.1-0.5-0.1&#10;&#9;&#9;&#9;&#9;c-0.5-0.1-1-0.3-1.5-0.4c-0.2-0.1-0.4-0.1-0.6-0.2c-0.4-0.1-0.9-0.3-1.3-0.4c-0.2-0.1-0.4-0.1-0.6-0.2c-0.6-0.2-1.2-0.4-1.8-0.6&#10;&#9;&#9;&#9;&#9;l-6.1,3.6l-6.8-3.9l0-7.1c-2-1.8-3.6-3.8-4.7-5.8c-0.4-0.7-0.7-1.3-0.9-2h0l0,0l0,0l-8.7,0l-0.1-10.5l-0.1,18.2l0.1,10.5l8.2,0&#10;&#9;&#9;&#9;&#9;l0,11.4l12.9,7.5l6.1-3.6c0.6,0.2,1.2,0.4,1.8,0.6c0.2,0.1,0.4,0.1,0.6,0.2c0.4,0.1,0.9,0.3,1.3,0.4c0.1,0,0.2,0.1,0.3,0.1&#10;&#9;&#9;&#9;&#9;c0.1,0,0.2,0.1,0.3,0.1c0.5,0.1,1,0.3,1.5,0.4c0.2,0,0.4,0.1,0.5,0.1c0.7,0.2,1.3,0.3,2,0.5c0,0,0,0,0.1,0c0.1,0,0.3,0,0.4,0.1&#10;&#9;&#9;&#9;&#9;c0.5,0.1,1,0.2,1.5,0.3c0.2,0,0.5,0.1,0.7,0.1c0.4,0.1,0.8,0.1,1.3,0.2c0.1,0,0.2,0,0.3,0.1c0.3,0,0.6,0.1,1,0.1l0,5l18.2,0l0-5&#10;&#9;&#9;&#9;&#9;c0.6-0.1,1.1-0.2,1.7-0.2c0.2,0,0.4-0.1,0.6-0.1c0.4-0.1,0.7-0.1,1.1-0.2c0,0,0,0,0,0c0.6-0.1,1.3-0.2,1.9-0.4&#10;&#9;&#9;&#9;&#9;c0.2,0,0.3-0.1,0.5-0.1c0.4-0.1,0.9-0.2,1.3-0.3c0.2-0.1,0.4-0.1,0.7-0.2c0.4-0.1,0.8-0.2,1.2-0.3c0.2-0.1,0.5-0.1,0.7-0.2&#10;&#9;&#9;&#9;&#9;c0.4-0.1,0.7-0.2,1.1-0.3c0.1,0,0.3-0.1,0.4-0.1c0.1,0,0.2-0.1,0.2-0.1c0.7-0.2,1.4-0.5,2-0.7l6.2,3.6l12.8-7.5l0-11.4l8,0&#10;&#9;&#9;&#9;&#9;L805.1,1175.1z"/>
		</g>
		<path fill="#FFFFFF" d="M796.4,1175.1l8.7,0l-0.1-10.5l-8.7,0c-1.1-2.7-2.9-5.4-5.6-7.8l6.1-3.6l-12.9-7.5l-6.1,3.6&#10;&#9;&#9;&#9;c-4.2-1.6-8.8-2.6-13.5-3.2l0-5l-18.2,0l0,5c-4.7,0.6-9.3,1.7-13.5,3.2l-6.2-3.6l-12.8,7.5l6.2,3.6c-2.7,2.4-4.5,5.1-5.5,7.8&#10;&#9;&#9;&#9;l-8.7,0l0.1,10.5l8.7,0c1.1,2.7,2.9,5.4,5.6,7.8l-6.1,3.6l12.9,7.5l6.1-3.6c4.2,1.6,8.8,2.6,13.5,3.2l0,5l18.2,0l0-5&#10;&#9;&#9;&#9;c4.7-0.6,9.3-1.7,13.5-3.2l6.2,3.6l12.8-7.5l-6.2-3.6C793.5,1180.4,795.3,1177.8,796.4,1175.1z M767.9,1177.1&#10;&#9;&#9;&#9;c-6.9,4-18.2,4-25.1,0c-7-4-7-10.5-0.1-14.6c6.9-4,18.2-4,25.1,0C774.8,1166.5,774.8,1173,767.9,1177.1z"/>
	</g>
</g>
</svg>